<svg width="100" height="100" viewBox="0 0 100 100" fill="none" xmlns="http://www.w3.org/2000/svg">
<circle cx="50" cy="50" r="50" fill="#FFED4D"/>
<path d="M29.5724 69.4769C26.5609 70.8265 23.5153 70.975 20.4356 69.9224L21.8795 65.0016C24.1437 65.6526 26.0059 65.6509 27.4659 64.9966C28.342 64.604 28.9364 64.0965 29.2493 63.4742C29.5722 62.8254 29.5742 62.1451 29.2552 61.4333C28.9526 60.758 28.4466 60.3382 27.7374 60.1739C27.0465 60.0013 26.2812 60.1032 25.4416 60.4794C24.4561 60.9211 23.5772 61.6985 22.8048 62.8117L18.8713 62.4705L15.0636 52.5064L27.8759 46.7647L29.8388 51.145L21.2152 55.0096L22.3514 57.9851C23.1142 57.0953 24.034 56.4092 25.1108 55.9266C26.9725 55.0923 28.7701 54.9223 30.5038 55.4165C32.2294 55.8925 33.5379 57.1252 34.4294 59.1146C35.37 61.2134 35.3842 63.2014 34.4721 65.0786C33.5783 66.9476 31.945 68.4137 29.5724 69.4769ZM55.2744 54.5071C54.5089 57.1514 52.7937 59.0706 50.1291 60.2648C47.4644 61.4589 44.8946 61.4709 42.4196 60.3007C39.9547 59.1041 38.0884 57.0913 36.8207 54.2624C35.5693 51.4699 35.3355 48.7475 36.1193 46.095C36.8949 43.4243 38.606 41.4959 41.2524 40.31C43.917 39.1158 46.4818 39.1171 48.9467 40.3137C51.4299 41.5021 53.3012 43.5017 54.5608 46.3124C55.8122 49.1048 56.05 51.8364 55.2744 54.5071ZM44.85 55.2337C45.9405 55.9066 47.0151 56.0058 48.0737 55.5314C49.1322 55.057 49.7642 54.1931 49.9695 52.9395C50.1666 51.6677 49.9175 50.2561 49.2223 48.7047C48.5353 47.1716 47.6333 46.0636 46.5163 45.3807C45.4176 44.6896 44.3481 44.5771 43.3078 45.0433C42.2492 45.5177 41.6173 46.3817 41.412 47.6352C41.2067 48.8888 41.4557 50.3004 42.1591 51.87C42.8543 53.4213 43.7513 54.5426 44.85 55.2337ZM64.6988 53.2753L70.8943 27.4866L74.5902 25.8304L68.3947 51.619L64.6988 53.2753ZM83.3378 43.4431C82.8569 44.8641 81.8955 45.8976 80.4536 46.5438C79.0118 47.1899 77.6046 47.2288 76.2321 46.6603C74.8697 46.0655 73.8614 45.038 73.2071 43.5779C72.5609 42.136 72.4733 40.7179 72.9442 39.3234C73.4069 37.9106 74.3774 36.873 75.8558 36.2105C77.3159 35.5561 78.7271 35.5264 80.0895 36.1213C81.4437 36.6979 82.448 37.7163 83.1023 39.1763C83.7403 40.5999 83.8188 42.0222 83.3378 43.4431ZM77.7117 43.433C78.2019 43.6955 78.6752 43.7245 79.1315 43.5201C79.5877 43.3156 79.8719 42.9471 79.984 42.4148C80.1143 41.8742 80.0364 41.2845 79.7501 40.6457C79.472 40.0252 79.0879 39.5837 78.5977 39.3212C78.1257 39.0505 77.6525 39.0215 77.1779 39.2342C76.6851 39.455 76.3827 39.8316 76.2706 40.364C76.1686 40.87 76.2648 41.4515 76.5593 42.1085C76.8292 42.7108 77.2133 43.1523 77.7117 43.433ZM63.4332 42.8952C61.9731 43.5495 60.566 43.5884 59.2117 43.0118C57.8493 42.4169 56.841 41.3894 56.1867 39.9293C55.5405 38.4875 55.4529 37.0693 55.9238 35.6748C56.3865 34.262 57.357 33.2244 58.8354 32.5619C60.2955 31.9076 61.7067 31.8779 63.0691 32.4727C64.4233 33.0493 65.4276 34.0677 66.0819 35.5278C66.7281 36.9696 66.8107 38.401 66.3297 39.8219C65.8406 41.2246 64.8751 42.2491 63.4332 42.8952ZM60.6913 39.7845C61.1815 40.047 61.6548 40.076 62.1111 39.8715C62.5673 39.667 62.8515 39.2986 62.9636 38.7662C63.0939 38.2256 63.016 37.6359 62.7297 36.9972C62.4598 36.3949 62.0797 35.9625 61.5895 35.7C61.0911 35.4193 60.6138 35.3811 60.1575 35.5856C59.683 35.7983 59.3897 36.1708 59.2776 36.7032C59.1655 37.2356 59.2526 37.8212 59.5389 38.4599C59.817 39.0805 60.2011 39.522 60.6913 39.7845Z" fill="#3F7AD8"/>
</svg>
