<svg width="53" height="185" viewBox="0 0 53 185" fill="none" xmlns="http://www.w3.org/2000/svg">
<path d="M15.6472 185C6.07782 185 -3.22196e-07 177.629 -7.06569e-07 168.836C-9.83545e-07 162.499 3.23288 158.62 6.7244 156.292L9.56934 161.594C7.37098 163.016 5.56056 165.603 5.56056 168.836C5.56056 174.396 9.82797 178.276 15.5178 178.276C21.2077 178.276 25.4751 174.267 25.4751 168.836C25.4751 166.12 24.3113 163.663 23.1475 162.37L19.5266 162.37L19.5266 170.387L13.8367 170.387L13.8367 155.904L25.4751 155.904C28.9666 159.008 31.165 163.275 31.165 168.836C31.4236 177.629 25.2165 185 15.6472 185ZM15.6472 149.05C6.59508 149.05 -1.86534e-06 142.326 -2.26102e-06 133.274C-2.66235e-06 124.092 6.59508 117.368 15.6472 117.368C24.8286 117.368 31.2943 124.092 31.2943 133.274C31.2943 142.326 24.8286 149.05 15.6472 149.05ZM15.6472 124.092C9.95728 124.092 5.68988 127.713 5.68988 133.274C5.68988 138.834 9.95728 142.455 15.6472 142.455C21.337 142.455 25.6044 138.834 25.6044 133.274C25.6044 127.713 21.337 124.092 15.6472 124.092ZM26.5097 111.678L21.5957 108.187C23.794 105.988 25.7338 102.755 25.7338 98.6173C25.7338 95.1258 24.0527 93.3154 22.3716 93.3154C17.0696 93.3154 20.6905 110.773 9.31071 110.773C4.2674 110.773 0.129312 106.376 0.129312 99.2639C0.129311 94.4792 1.55178 90.4705 4.39672 87.4962L9.05207 90.9877C6.7244 93.4447 5.68987 96.6776 5.68987 99.7812C5.68987 102.497 6.85371 104.049 8.79344 104.049C13.5781 104.049 10.3452 86.591 21.725 86.591C27.2855 86.591 31.4236 90.5998 31.4236 98.7466C31.2943 104.695 29.3546 108.963 26.5097 111.678ZM30.7771 58.5295L18.1042 58.5295L18.1042 72.7542L30.7771 72.7542L30.7771 79.22L0.517257 79.22L0.517257 72.7542L12.4143 72.7542L12.4143 58.5295L0.517256 58.5295L0.517256 51.9345L30.7771 51.9345L30.7771 58.5295ZM0.517255 42.8824L0.517255 36.4166L30.7771 36.4166L30.7771 42.8824L0.517255 42.8824ZM30.7771 6.28613L10.9918 20.7695L30.7771 20.7695L30.7771 27.2352L0.517255 27.2352L0.517254 20.6402L19.5266 6.54477L0.517254 6.54477L0.517254 0.0789947L30.7771 0.0789934L30.7771 6.28613ZM51.3382 183.448L50.1744 182.672C51.2089 181.767 51.5968 180.862 51.5968 179.31C51.5968 177.629 50.821 176.077 48.4933 176.077L47.0708 176.077C48.1053 176.853 48.8812 178.017 48.8812 179.439C48.8812 182.155 46.9415 183.965 43.5793 183.965C40.3464 183.965 38.2774 182.155 38.2774 179.439C38.2774 178.017 38.9239 176.853 40.0878 176.077L38.536 176.077L38.536 174.525L48.4933 174.525C51.8555 174.525 52.89 176.853 52.89 179.439C52.89 180.991 52.5021 182.155 51.3382 183.448ZM45.7777 175.948L41.3809 175.948C40.4757 176.465 39.6998 177.758 39.6998 179.051C39.6998 181.121 41.3809 182.284 43.5793 182.284C45.7777 182.284 47.4588 181.121 47.4588 179.051C47.4588 177.758 46.6829 176.594 45.7777 175.948ZM48.7519 171.293L38.536 171.293L38.536 169.741L40.2171 169.741C39.1826 168.965 38.4067 167.672 38.4067 166.379L40.0878 166.379L40.0878 167.025C40.0878 168.06 40.8637 169.353 41.7689 169.741L49.0105 169.741L49.0105 171.293L48.7519 171.293ZM43.5793 164.827C40.605 164.827 38.2774 162.887 38.2774 159.783C38.2774 156.68 40.605 154.74 43.5793 154.74C46.5535 154.74 49.0105 156.68 49.0105 159.783C49.0105 162.887 46.5535 164.827 43.5793 164.827ZM43.5793 156.421C41.5102 156.421 39.6998 157.585 39.6998 159.783C39.6998 161.982 41.5102 163.146 43.5793 163.146C45.6483 163.146 47.5881 161.982 47.5881 159.783C47.5881 157.585 45.7777 156.421 43.5793 156.421ZM48.7519 145.3L47.3294 145.3C48.2346 146.076 49.0105 147.369 49.0105 148.921C49.0105 151.119 47.976 152.154 45.7777 152.154L38.536 152.154L38.536 150.602L45.2604 150.602C47.0708 150.602 47.5881 149.697 47.5881 148.274C47.5881 146.981 46.8122 145.817 46.0363 145.3L38.536 145.3L38.536 143.748L48.7519 143.748L48.7519 145.3ZM47.2001 138.964L52.6314 138.964L52.6314 140.516L38.536 140.516L38.536 138.964L40.0878 138.964C39.0532 138.188 38.2774 136.895 38.2774 135.472C38.2774 132.757 40.3464 130.946 43.5793 130.946C46.9415 130.946 49.0105 132.757 49.0105 135.472C49.0105 136.895 48.364 138.059 47.2001 138.964ZM43.5793 132.627C41.3809 132.627 39.6998 133.791 39.6998 135.86C39.6998 137.153 40.4757 138.317 41.3809 138.964L46.0363 138.964C46.9415 138.446 47.7174 137.153 47.7174 135.86C47.5881 133.791 45.907 132.627 43.5793 132.627Z" fill="#EEF2F8" fill-opacity="0.3" style="mix-blend-mode:soft-light"/>
</svg>
