<svg width="53" height="185" viewBox="0 0 53 185" fill="none" xmlns="http://www.w3.org/2000/svg">
<path d="M15.6472 184.921C6.07782 184.921 -3.22196e-07 177.55 -7.06569e-07 168.756C-9.83545e-07 162.42 3.23288 158.541 6.7244 156.213L9.56934 161.515C7.37098 162.937 5.56056 165.524 5.56056 168.756C5.56056 174.317 9.82797 178.196 15.5178 178.196C21.2077 178.196 25.4751 174.188 25.4751 168.756C25.4751 166.041 24.3113 163.584 23.1475 162.291L19.5266 162.291L19.5266 170.308L13.8367 170.308L13.8367 155.825L25.4751 155.825C28.9666 158.928 31.165 163.196 31.165 168.756C31.4236 177.55 25.2165 184.921 15.6472 184.921ZM15.6472 148.971C6.59508 148.971 -1.86534e-06 142.247 -2.26102e-06 133.195C-2.66235e-06 124.013 6.59508 117.289 15.6472 117.289C24.8286 117.289 31.2943 124.013 31.2943 133.195C31.2943 142.247 24.8286 148.971 15.6472 148.971ZM15.6472 124.013C9.95728 124.013 5.68988 127.634 5.68988 133.195C5.68988 138.755 9.95728 142.376 15.6472 142.376C21.337 142.376 25.6044 138.755 25.6044 133.195C25.6044 127.634 21.337 124.013 15.6472 124.013ZM26.5097 111.599L21.5957 108.108C23.794 105.909 25.7338 102.676 25.7338 98.5382C25.7338 95.0467 24.0527 93.2363 22.3716 93.2363C17.0696 93.2363 20.6905 110.694 9.31071 110.694C4.2674 110.694 0.129312 106.297 0.129312 99.1848C0.129311 94.4001 1.55178 90.3914 4.39672 87.4171L9.05207 90.9086C6.7244 93.3656 5.68987 96.5985 5.68987 99.7021C5.68987 102.418 6.85371 103.969 8.79344 103.969C13.5781 103.969 10.3452 86.5119 21.725 86.5119C27.2855 86.5119 31.4236 90.5207 31.4236 98.6675C31.2943 104.616 29.3546 108.883 26.5097 111.599ZM30.7771 58.4504L18.1042 58.4504L18.1042 72.6751L30.7771 72.6751L30.7771 79.1409L0.517257 79.1409L0.517257 72.6751L12.4143 72.6751L12.4143 58.4504L0.517256 58.4504L0.517256 51.8554L30.7771 51.8554L30.7771 58.4504ZM0.517255 42.8033L0.517255 36.3375L30.7771 36.3375L30.7771 42.8033L0.517255 42.8033ZM30.7771 6.20703L10.9918 20.6904L30.7771 20.6904L30.7771 27.1561L0.517255 27.1561L0.517254 20.5611L19.5266 6.46567L0.517254 6.46567L0.517254 -0.000106834L30.7771 -0.000108157L30.7771 6.20703ZM51.3382 183.369L50.1744 182.593C51.2089 181.688 51.5968 180.783 51.5968 179.231C51.5968 177.55 50.821 175.998 48.4933 175.998L47.0708 175.998C48.1053 176.774 48.8812 177.938 48.8812 179.36C48.8812 182.076 46.9415 183.886 43.5793 183.886C40.3464 183.886 38.2774 182.076 38.2774 179.36C38.2774 177.938 38.9239 176.774 40.0878 175.998L38.536 175.998L38.536 174.446L48.4933 174.446C51.8555 174.446 52.89 176.774 52.89 179.36C52.89 180.912 52.5021 182.076 51.3382 183.369ZM45.7777 175.869L41.3809 175.869C40.4757 176.386 39.6998 177.679 39.6998 178.972C39.6998 181.041 41.3809 182.205 43.5793 182.205C45.7777 182.205 47.4588 181.041 47.4588 178.972C47.4588 177.679 46.6829 176.515 45.7777 175.869ZM48.7519 171.213L38.536 171.213L38.536 169.662L40.2171 169.662C39.1826 168.886 38.4067 167.593 38.4067 166.299L40.0878 166.299L40.0878 166.946C40.0878 167.981 40.8637 169.274 41.7689 169.662L49.0105 169.662L49.0105 171.213L48.7519 171.213ZM43.5793 164.748C40.605 164.748 38.2774 162.808 38.2774 159.704C38.2774 156.601 40.605 154.661 43.5793 154.661C46.5535 154.661 49.0105 156.601 49.0105 159.704C49.0105 162.808 46.5535 164.748 43.5793 164.748ZM43.5793 156.342C41.5102 156.342 39.6998 157.506 39.6998 159.704C39.6998 161.903 41.5102 163.067 43.5793 163.067C45.6483 163.067 47.5881 161.903 47.5881 159.704C47.5881 157.506 45.7777 156.342 43.5793 156.342ZM48.7519 145.221L47.3294 145.221C48.2346 145.997 49.0105 147.29 49.0105 148.842C49.0105 151.04 47.976 152.075 45.7777 152.075L38.536 152.075L38.536 150.523L45.2604 150.523C47.0708 150.523 47.5881 149.618 47.5881 148.195C47.5881 146.902 46.8122 145.738 46.0363 145.221L38.536 145.221L38.536 143.669L48.7519 143.669L48.7519 145.221ZM47.2001 138.885L52.6314 138.885L52.6314 140.436L38.536 140.436L38.536 138.885L40.0878 138.885C39.0532 138.109 38.2774 136.816 38.2774 135.393C38.2774 132.677 40.3464 130.867 43.5793 130.867C46.9415 130.867 49.0105 132.677 49.0105 135.393C49.0105 136.816 48.364 137.979 47.2001 138.885ZM43.5793 132.548C41.3809 132.548 39.6998 133.712 39.6998 135.781C39.6998 137.074 40.4757 138.238 41.3809 138.885L46.0363 138.885C46.9415 138.367 47.7174 137.074 47.7174 135.781C47.5881 133.712 45.907 132.548 43.5793 132.548Z" fill="#EEF2F8" fill-opacity="0.3" style="mix-blend-mode:soft-light"/>
</svg>
