<svg width="26" height="48" viewBox="0 0 26 48" fill="none" xmlns="http://www.w3.org/2000/svg">
<path d="M0.8 0.299999C2.46667 0.499999 4.3 0.633331 6.3 0.699997C8.3 0.766665 10.6 0.799999 13.2 0.799999C15.8 0.799999 18.0667 0.766665 20 0.699997C22 0.566663 23.8667 0.399997 25.6 0.199998C25.6667 0.533331 25.7 0.866664 25.7 1.2C25.7667 1.53333 25.8 1.83333 25.8 2.1C25.8 2.63333 25.6667 3 25.4 3.2C25.2 3.33333 24.9667 3.43333 24.7 3.5C22.3667 3.83333 20.8333 4.26667 20.1 4.8C19.4333 5.33333 19.1 6.06666 19.1 7V40.8C19.1 41.8 19.5 42.5333 20.3 43C21.1667 43.4667 22.6333 43.9 24.7 44.3C24.9667 44.3667 25.2 44.5 25.4 44.7C25.6667 44.8333 25.8 45.1333 25.8 45.6C25.8 46.2 25.7333 46.8333 25.6 47.5C23.8667 47.3667 22 47.2333 20 47.1C18 47.0333 15.7 47 13.1 47C10.5 47 8.23333 47.0667 6.3 47.2C4.36667 47.3333 2.56667 47.4667 0.9 47.6C0.766667 47.3333 0.666667 47.0333 0.6 46.7C0.6 46.3 0.6 45.9333 0.6 45.6C0.6 44.8667 0.966667 44.4333 1.7 44.3C3.83333 43.9 5.3 43.4667 6.1 43C6.9 42.5333 7.3 41.8 7.3 40.8V7C7.3 6.06666 6.86667 5.36666 6 4.9C5.13333 4.36666 3.7 3.93333 1.7 3.6C1.36667 3.53333 1.1 3.43333 0.9 3.3C0.7 3.1 0.6 2.73333 0.6 2.2C0.6 1.93333 0.6 1.63333 0.6 1.3C0.6 0.966665 0.666667 0.633332 0.8 0.299999Z" fill="#D35400"/>
<path d="M0.8 0.299999C2.46667 0.499999 4.3 0.633331 6.3 0.699997C8.3 0.766665 10.6 0.799999 13.2 0.799999C15.8 0.799999 18.0667 0.766665 20 0.699997C22 0.566663 23.8667 0.399997 25.6 0.199998C25.6667 0.533331 25.7 0.866664 25.7 1.2C25.7667 1.53333 25.8 1.83333 25.8 2.1C25.8 2.63333 25.6667 3 25.4 3.2C25.2 3.33333 24.9667 3.43333 24.7 3.5C22.3667 3.83333 20.8333 4.26667 20.1 4.8C19.4333 5.33333 19.1 6.06666 19.1 7V40.8C19.1 41.8 19.5 42.5333 20.3 43C21.1667 43.4667 22.6333 43.9 24.7 44.3C24.9667 44.3667 25.2 44.5 25.4 44.7C25.6667 44.8333 25.8 45.1333 25.8 45.6C25.8 46.2 25.7333 46.8333 25.6 47.5C23.8667 47.3667 22 47.2333 20 47.1C18 47.0333 15.7 47 13.1 47C10.5 47 8.23333 47.0667 6.3 47.2C4.36667 47.3333 2.56667 47.4667 0.9 47.6C0.766667 47.3333 0.666667 47.0333 0.6 46.7C0.6 46.3 0.6 45.9333 0.6 45.6C0.6 44.8667 0.966667 44.4333 1.7 44.3C3.83333 43.9 5.3 43.4667 6.1 43C6.9 42.5333 7.3 41.8 7.3 40.8V7C7.3 6.06666 6.86667 5.36666 6 4.9C5.13333 4.36666 3.7 3.93333 1.7 3.6C1.36667 3.53333 1.1 3.43333 0.9 3.3C0.7 3.1 0.6 2.73333 0.6 2.2C0.6 1.93333 0.6 1.63333 0.6 1.3C0.6 0.966665 0.666667 0.633332 0.8 0.299999Z" fill="url(#paint0_linear)"/>
<defs>
<linearGradient id="paint0_linear" x1="14.5" y1="-9.15385" x2="14.5" y2="89.8462" gradientUnits="userSpaceOnUse">
<stop stop-color="white" stop-opacity="0"/>
<stop offset="0.75" stop-color="white"/>
</linearGradient>
</defs>
</svg>
