<svg width="37" height="49" viewBox="0 0 37 49" fill="none" xmlns="http://www.w3.org/2000/svg">
<path d="M4.5 12.5C3.96667 12.9 3.53333 13.1 3.2 13.1C2.8 13.1 2.33333 12.9667 1.8 12.7C1.33333 12.4333 0.933333 12.0333 0.6 11.5C1.8 9.96667 3.13333 8.53333 4.6 7.2C6.13333 5.86666 7.73333 4.7 9.4 3.7C11.1333 2.7 12.9 1.9 14.7 1.3C16.5667 0.699999 18.4667 0.399999 20.4 0.399999C25.3333 0.399999 28.9667 1.56667 31.3 3.9C33.7 6.23333 34.9 9.33333 34.9 13.2C34.9 15.1333 34.5667 17 33.9 18.8C33.2333 20.5333 32.0333 22.4333 30.3 24.5C28.6333 26.5 26.3333 28.7667 23.4 31.3C20.5333 33.7667 16.8667 36.6667 12.4 40H27.1C28.5 40 29.6333 39.8 30.5 39.4C31.3667 38.9333 32.1667 37.8333 32.9 36.1C33.2333 35.3667 33.7667 35 34.5 35C34.7667 35 35.2333 35.0667 35.9 35.2C36.0333 35.2 36.1667 35.2333 36.3 35.3C36.5 35.3 36.7 35.3 36.9 35.3C36.3 37.1 35.7333 39.0667 35.2 41.2C34.6667 43.2667 34.2333 45.2667 33.9 47.2C33.7667 47.7333 33.6 48.0667 33.4 48.2C33.2 48.3333 32.8667 48.4 32.4 48.4C31.2 48.4 29.7 48.3333 27.9 48.2C26.1 48.0667 24.1333 48 22 48H0.6V44.9C4.6 41.2333 7.9 38.0333 10.5 35.3C13.1667 32.5 15.3 30 16.9 27.8C18.5 25.6 19.6 23.6 20.2 21.8C20.8667 19.9333 21.2 18.1333 21.2 16.4C21.2 13.6667 20.6 11.6 19.4 10.2C18.2667 8.73333 16.6333 8 14.5 8C12.9 8 11.4 8.33333 10 9C8.66667 9.6 6.83333 10.7667 4.5 12.5Z" fill="#D35400"/>
<path d="M4.5 12.5C3.96667 12.9 3.53333 13.1 3.2 13.1C2.8 13.1 2.33333 12.9667 1.8 12.7C1.33333 12.4333 0.933333 12.0333 0.6 11.5C1.8 9.96667 3.13333 8.53333 4.6 7.2C6.13333 5.86666 7.73333 4.7 9.4 3.7C11.1333 2.7 12.9 1.9 14.7 1.3C16.5667 0.699999 18.4667 0.399999 20.4 0.399999C25.3333 0.399999 28.9667 1.56667 31.3 3.9C33.7 6.23333 34.9 9.33333 34.9 13.2C34.9 15.1333 34.5667 17 33.9 18.8C33.2333 20.5333 32.0333 22.4333 30.3 24.5C28.6333 26.5 26.3333 28.7667 23.4 31.3C20.5333 33.7667 16.8667 36.6667 12.4 40H27.1C28.5 40 29.6333 39.8 30.5 39.4C31.3667 38.9333 32.1667 37.8333 32.9 36.1C33.2333 35.3667 33.7667 35 34.5 35C34.7667 35 35.2333 35.0667 35.9 35.2C36.0333 35.2 36.1667 35.2333 36.3 35.3C36.5 35.3 36.7 35.3 36.9 35.3C36.3 37.1 35.7333 39.0667 35.2 41.2C34.6667 43.2667 34.2333 45.2667 33.9 47.2C33.7667 47.7333 33.6 48.0667 33.4 48.2C33.2 48.3333 32.8667 48.4 32.4 48.4C31.2 48.4 29.7 48.3333 27.9 48.2C26.1 48.0667 24.1333 48 22 48H0.6V44.9C4.6 41.2333 7.9 38.0333 10.5 35.3C13.1667 32.5 15.3 30 16.9 27.8C18.5 25.6 19.6 23.6 20.2 21.8C20.8667 19.9333 21.2 18.1333 21.2 16.4C21.2 13.6667 20.6 11.6 19.4 10.2C18.2667 8.73333 16.6333 8 14.5 8C12.9 8 11.4 8.33333 10 9C8.66667 9.6 6.83333 10.7667 4.5 12.5Z" fill="url(#paint0_linear)"/>
<defs>
<linearGradient id="paint0_linear" x1="19" y1="-11.7198" x2="19" y2="78.6374" gradientUnits="userSpaceOnUse">
<stop stop-color="white" stop-opacity="0"/>
<stop offset="0.75" stop-color="white"/>
</linearGradient>
</defs>
</svg>
