<svg width="37" height="67" viewBox="0 0 37 67" fill="none" xmlns="http://www.w3.org/2000/svg">
<path d="M6.7 29.8C9.9 28.2 12.5333 26.7667 14.6 25.5C16.6667 24.1667 18.2667 22.9 19.4 21.7C20.6 20.5 21.4333 19.2667 21.9 18C22.3667 16.7333 22.6 15.3333 22.6 13.8C22.6 11.8667 21.9333 10.3667 20.6 9.3C19.3333 8.16666 17.7333 7.6 15.8 7.6C14.9333 7.6 14.1333 7.66667 13.4 7.8C12.6667 7.93333 11.9 8.16667 11.1 8.5C10.3667 8.76666 9.56667 9.16666 8.7 9.7C7.83333 10.1667 6.86667 10.7667 5.8 11.5C5.53333 11.6333 5.3 11.7667 5.1 11.9C4.9 12.0333 4.63333 12.1 4.3 12.1C3.96667 12.1 3.56667 11.9667 3.1 11.7C2.63333 11.4333 2.23333 11.0333 1.9 10.5C5.1 7.1 8.16667 4.56666 11.1 2.9C14.0333 1.23333 17.3667 0.399999 21.1 0.399999C24.9667 0.399999 28.1667 1.3 30.7 3.1C33.3 4.9 34.6 7.66666 34.6 11.4C34.6 13.0667 34.3 14.6 33.7 16C33.1 17.4 32.3 18.7 31.3 19.9C30.3 21.1 29.1333 22.1667 27.8 23.1C26.4667 24.0333 25.0667 24.9 23.6 25.7V25.9C27.9333 26.7 31.2333 28.3333 33.5 30.8C35.8333 33.2 37 36.2 37 39.8C37 42.6667 36.2333 45.4333 34.7 48.1C33.2333 50.8333 31 53.3667 28 55.7C25.0667 58.0333 21.3667 60.1 16.9 61.9C12.4333 63.7667 7.23333 65.2667 1.3 66.4C0.966667 66.0667 0.733333 65.6333 0.6 65.1C0.466667 64.6333 0.4 64.2333 0.4 63.9C0.4 63.3 0.7 62.9 1.3 62.7C5.96667 61.1 9.73333 59.4333 12.6 57.7C15.4667 56.0333 17.7 54.3 19.3 52.5C20.9 50.7 21.9667 48.9 22.5 47.1C23.1 45.3 23.4 43.5 23.4 41.7C23.4 38.7 22.6667 36.3333 21.2 34.6C19.8 32.8667 17.6333 32 14.7 32C12.4333 32 9.76667 32.6 6.7 33.8V29.8Z" fill="#D35400"/>
<path d="M6.7 29.8C9.9 28.2 12.5333 26.7667 14.6 25.5C16.6667 24.1667 18.2667 22.9 19.4 21.7C20.6 20.5 21.4333 19.2667 21.9 18C22.3667 16.7333 22.6 15.3333 22.6 13.8C22.6 11.8667 21.9333 10.3667 20.6 9.3C19.3333 8.16666 17.7333 7.6 15.8 7.6C14.9333 7.6 14.1333 7.66667 13.4 7.8C12.6667 7.93333 11.9 8.16667 11.1 8.5C10.3667 8.76666 9.56667 9.16666 8.7 9.7C7.83333 10.1667 6.86667 10.7667 5.8 11.5C5.53333 11.6333 5.3 11.7667 5.1 11.9C4.9 12.0333 4.63333 12.1 4.3 12.1C3.96667 12.1 3.56667 11.9667 3.1 11.7C2.63333 11.4333 2.23333 11.0333 1.9 10.5C5.1 7.1 8.16667 4.56666 11.1 2.9C14.0333 1.23333 17.3667 0.399999 21.1 0.399999C24.9667 0.399999 28.1667 1.3 30.7 3.1C33.3 4.9 34.6 7.66666 34.6 11.4C34.6 13.0667 34.3 14.6 33.7 16C33.1 17.4 32.3 18.7 31.3 19.9C30.3 21.1 29.1333 22.1667 27.8 23.1C26.4667 24.0333 25.0667 24.9 23.6 25.7V25.9C27.9333 26.7 31.2333 28.3333 33.5 30.8C35.8333 33.2 37 36.2 37 39.8C37 42.6667 36.2333 45.4333 34.7 48.1C33.2333 50.8333 31 53.3667 28 55.7C25.0667 58.0333 21.3667 60.1 16.9 61.9C12.4333 63.7667 7.23333 65.2667 1.3 66.4C0.966667 66.0667 0.733333 65.6333 0.6 65.1C0.466667 64.6333 0.4 64.2333 0.4 63.9C0.4 63.3 0.7 62.9 1.3 62.7C5.96667 61.1 9.73333 59.4333 12.6 57.7C15.4667 56.0333 17.7 54.3 19.3 52.5C20.9 50.7 21.9667 48.9 22.5 47.1C23.1 45.3 23.4 43.5 23.4 41.7C23.4 38.7 22.6667 36.3333 21.2 34.6C19.8 32.8667 17.6333 32 14.7 32C12.4333 32 9.76667 32.6 6.7 33.8V29.8Z" fill="url(#paint0_linear)"/>
<defs>
<linearGradient id="paint0_linear" x1="20" y1="-11.7198" x2="20" y2="78.6374" gradientUnits="userSpaceOnUse">
<stop stop-color="white" stop-opacity="0"/>
<stop offset="0.75" stop-color="white"/>
</linearGradient>
</defs>
</svg>
