<svg width="41" height="56" viewBox="0 0 41 56" fill="none" xmlns="http://www.w3.org/2000/svg">
<path d="M40.12 34.2V41H34V55.45H23.97V41H0.51C0.453333 40.5467 0.396667 40.0367 0.34 39.47C0.34 38.8467 0.34 38.45 0.34 38.28C0.34 38.11 0.368333 37.8833 0.425 37.6C0.538333 37.26 0.736667 36.9483 1.02 36.665L28.305 1.56C28.4183 1.39 28.56 1.24833 28.73 1.135C28.9 1.02167 29.155 0.964999 29.495 0.964999H34V34.2H40.12ZM23.97 13.885L8.075 34.2H23.97V13.885Z" fill="#D35400"/>
<path d="M40.12 34.2V41H34V55.45H23.97V41H0.51C0.453333 40.5467 0.396667 40.0367 0.34 39.47C0.34 38.8467 0.34 38.45 0.34 38.28C0.34 38.11 0.368333 37.8833 0.425 37.6C0.538333 37.26 0.736667 36.9483 1.02 36.665L28.305 1.56C28.4183 1.39 28.56 1.24833 28.73 1.135C28.9 1.02167 29.155 0.964999 29.495 0.964999H34V34.2H40.12ZM23.97 13.885L8.075 34.2H23.97V13.885Z" fill="url(#paint0_linear)"/>
<defs>
<linearGradient id="paint0_linear" x1="21" y1="-7.60989" x2="21" y2="73.3187" gradientUnits="userSpaceOnUse">
<stop stop-color="white" stop-opacity="0"/>
<stop offset="0.75" stop-color="white"/>
</linearGradient>
</defs>
</svg>
