<svg width="17" height="19" viewBox="0 0 17 19" fill="none" xmlns="http://www.w3.org/2000/svg">
<path d="M16.317 11.0284C16.8535 6.51211 16.0592 3.66087 14.6265 2.37126L14.6272 2.37051C12.3148 0.168204 4.50517 -0.157758 1.73861 2.46942C0.49621 3.75454 0.0585958 5.64063 0.0106381 7.97557C-0.0373196 10.3113 -0.0942695 14.6866 3.98288 15.8736H3.98663L3.98288 17.6863C3.98288 17.6863 3.95516 18.4206 4.42424 18.5682C4.96077 18.7421 5.20356 18.4011 6.87234 16.4079C9.66287 16.6499 11.806 16.0954 12.0495 16.0145C12.613 15.8256 15.8015 15.4038 16.317 11.0284ZM7.14734 15.1325C7.14734 15.1325 5.38115 17.3348 4.83189 17.9066C4.65204 18.0924 4.45497 18.0752 4.45796 17.7065C4.45796 17.4644 4.47145 14.6971 4.47145 14.6971C1.01475 13.7065 1.21857 9.9808 1.25604 8.03177C1.29351 6.08199 1.65019 4.48515 2.70226 3.40985C5.12937 1.1341 11.9761 1.6429 13.7205 3.28246C15.8532 5.17304 15.0941 10.5143 15.0986 10.6964C14.6602 14.3487 12.0765 14.5802 11.6014 14.7384C11.3983 14.8058 9.51376 15.2906 7.14734 15.1325Z" fill="#222222"/>
<path d="M8.12457 3.83789C7.83608 3.83789 7.83608 4.28749 8.12457 4.29124C10.3629 4.30848 12.2062 5.8686 12.2265 8.73033C12.2265 9.03231 12.6686 9.02856 12.6648 8.72658H12.6641C12.6401 5.64305 10.6274 3.85513 8.12457 3.83789Z" fill="#222222"/>
<path d="M11.0688 8.25569C11.062 8.55393 11.5034 8.56816 11.5071 8.26618C11.5438 6.56593 10.4955 5.16542 8.52551 5.0178C8.23701 4.99681 8.20704 5.45016 8.49478 5.47115C10.2033 5.60078 11.1032 6.76675 11.0688 8.25569Z" fill="#222222"/>
<path d="M10.5964 10.1902C10.2263 9.97587 9.84935 10.1093 9.69349 10.3198L9.36752 10.7417C9.20192 10.956 8.89244 10.9275 8.89244 10.9275C6.63393 10.3303 6.02997 7.96689 6.02997 7.96689C6.02997 7.96689 6.00224 7.64692 6.20906 7.47532L6.6167 7.13812C6.82052 6.97626 6.94941 6.58661 6.74184 6.2037C6.18733 5.20183 5.81491 4.85638 5.62532 4.59112C5.426 4.34159 5.12626 4.28539 4.81454 4.45399H4.80779C4.15962 4.83315 3.44999 5.54278 3.67704 6.27338C4.06445 7.0437 4.77632 9.49929 7.04532 11.3547C8.11163 12.2321 9.79914 13.1313 10.5155 13.3389L10.5223 13.3494C11.2281 13.5847 11.9145 12.8473 12.281 12.1797V12.1744C12.4436 11.8515 12.3896 11.5457 12.1521 11.3457C11.7309 10.935 11.0955 10.4817 10.5964 10.1902Z" fill="#222222"/>
<path d="M8.83385 6.69016C9.55397 6.73212 9.90316 7.10829 9.94063 7.88086C9.95412 8.18284 10.3925 8.16186 10.379 7.85988C10.331 6.85127 9.805 6.28926 8.85783 6.23681C8.56934 6.21957 8.54236 6.67292 8.83385 6.69016Z" fill="#222222"/>
</svg>
