<svg width="20" height="19" viewBox="0 0 20 19" fill="none" xmlns="http://www.w3.org/2000/svg">
<path d="M19.5032 0.795469C19.3374 0.609853 19.0759 0.560081 18.8592 0.65476L0.821545 8.55091C0.621709 8.63848 0.490356 8.8342 0.485491 9.05274C0.480627 9.27092 0.602998 9.47225 0.799092 9.5688L5.10605 11.6869L6.17932 18.1258C6.21413 18.3702 6.4061 18.5667 6.65609 18.6022C6.83571 18.628 7.01422 18.5648 7.13771 18.4376L10.5379 15.0373L15.3901 18.5034C15.5458 18.6142 15.7464 18.6385 15.923 18.5685C16.1 18.4986 16.2295 18.3433 16.2669 18.1565L19.635 1.27897C19.6683 1.11169 19.6252 0.932435 19.5032 0.795469ZM5.55063 10.6544L2.37907 9.09466L14.9089 3.60964L5.55063 10.6544ZM7.30724 12.3231L6.78519 14.9333L6.22199 11.5541L13.1066 6.37142L7.4603 12.0368C7.38096 12.1161 7.3282 12.2194 7.30724 12.3231ZM7.64891 16.3385L8.23794 13.3945L9.61172 14.3757L7.64891 16.3385ZM15.3359 17.0847L8.72218 12.3609L18.1702 2.8814L15.3359 17.0847Z" fill="#222222"/>
</svg>
