<svg width="19" height="19" viewBox="0 0 19 19" fill="none" xmlns="http://www.w3.org/2000/svg">
<path fill-rule="evenodd" clip-rule="evenodd" d="M15.9498 3.22375C14.2659 1.53779 12.0263 0.608899 9.64039 0.60791C4.72401 0.60791 0.722791 4.60902 0.720813 9.52672C0.720154 11.0988 1.13082 12.6333 1.9114 13.986L0.645996 18.6079L5.3744 17.3676C6.67727 18.0783 8.14405 18.4528 9.63677 18.4532H9.6405C14.5563 18.4532 18.558 14.4518 18.5599 9.53386C18.5609 7.15049 17.6339 4.90961 15.9498 3.22375ZM9.64039 16.9469H9.63732C8.30709 16.9463 7.00247 16.5888 5.86406 15.9135L5.59347 15.7528L2.78756 16.4889L3.5365 13.7532L3.36017 13.4727C2.61804 12.2923 2.22616 10.928 2.22682 9.52727C2.22836 5.43981 5.55414 2.11436 9.64336 2.11436C11.6235 2.11501 13.4849 2.88713 14.8846 4.28844C16.2843 5.68975 17.0546 7.55237 17.054 9.53331C17.0522 13.6211 13.7266 16.9469 9.64039 16.9469ZM13.7069 11.3945C13.4841 11.2829 12.3883 10.7439 12.1839 10.6694C11.9798 10.595 11.8311 10.558 11.6826 10.781C11.534 11.0041 11.107 11.5061 10.9769 11.6548C10.8468 11.8035 10.7169 11.8222 10.494 11.7106C10.2711 11.5991 9.55305 11.3636 8.70172 10.6044C8.03925 10.0134 7.59199 9.28359 7.46191 9.06057C7.33206 8.83733 7.46081 8.72834 7.55969 8.60574C7.80095 8.30614 8.04254 7.99204 8.11681 7.8434C8.19119 7.69464 8.15394 7.56445 8.09813 7.45294C8.04254 7.34143 7.59683 6.24445 7.41116 5.79807C7.2301 5.36367 7.04652 5.42234 6.90963 5.41553C6.77977 5.40905 6.63113 5.40773 6.48248 5.40773C6.33395 5.40773 6.09247 5.46343 5.88812 5.68667C5.68389 5.9098 5.1082 6.4489 5.1082 7.54589C5.1082 8.64287 5.9068 9.70261 6.0182 9.85137C6.1296 10.0001 7.58979 12.2512 9.8254 13.2165C10.3571 13.4463 10.7722 13.5833 11.096 13.686C11.6299 13.8557 12.1156 13.8317 12.4997 13.7744C12.9279 13.7103 13.8182 13.2352 14.0041 12.7146C14.1897 12.194 14.1897 11.7478 14.1339 11.6548C14.0783 11.5618 13.9297 11.5061 13.7069 11.3945Z" fill="#222222"/>
</svg>
