<svg width="40" height="30" viewBox="0 0 40 30" fill="none" xmlns="http://www.w3.org/2000/svg">
<path d="M0.834908 2.43406C6.32475 7.08336 15.9577 15.2629 18.789 17.8133C19.169 18.1575 19.5767 18.3325 19.9999 18.3325C20.4223 18.3325 20.8292 18.1591 21.2084 17.8166C24.0421 15.2637 33.6751 7.08336 39.165 2.43406C39.5068 2.14516 39.5589 1.63734 39.2822 1.28414C38.6425 0.467969 37.6887 0 36.6665 0H3.33327C2.31116 0 1.35733 0.467969 0.717721 1.28422C0.441002 1.63734 0.493111 2.14516 0.834908 2.43406Z" fill="#D35400"/>
<path d="M39.5166 4.95367C39.2212 4.81617 38.8737 4.86414 38.628 5.07414C32.5398 10.2352 24.7697 16.8507 22.325 19.0536C20.9529 20.2922 19.0486 20.2922 17.6733 19.0519C15.0675 16.7041 6.34188 9.28632 1.37203 5.07406C1.12461 4.86406 0.776328 4.81773 0.483359 4.95359C0.188828 5.09039 0 5.385 0 5.70968V26.6667C0 28.5052 1.49492 30.0001 3.33336 30.0001H36.6667C38.5051 30.0001 40 28.5052 40 26.6667V5.70968C40 5.385 39.8112 5.08961 39.5166 4.95367Z" fill="#D35400"/>
</svg>
