<svg width="22" height="30" viewBox="0 0 22 30" fill="none" xmlns="http://www.w3.org/2000/svg">
<path d="M10.8649 0C4.87395 0 0 4.87395 0 10.8648C0 18.2997 9.723 29.2145 10.137 29.6755C10.5258 30.1086 11.2047 30.1078 11.5928 29.6755C12.0068 29.2145 21.7298 18.2997 21.7298 10.8648C21.7296 4.87395 16.8557 0 10.8649 0ZM10.8649 16.3312C7.85069 16.3312 5.39854 13.879 5.39854 10.8648C5.39854 7.85063 7.85075 5.39848 10.8649 5.39848C13.879 5.39848 16.3312 7.85069 16.3312 10.8649C16.3312 13.8791 13.879 16.3312 10.8649 16.3312Z" fill="#D35400"/>
</svg>
