<svg width="30" height="30" viewBox="0 0 30 30" fill="none" xmlns="http://www.w3.org/2000/svg">
<path d="M29.4166 23.8548L26.0908 21.6374L23.1343 19.6668C22.5637 19.2871 21.7969 19.4116 21.3757 19.9523L19.5462 22.3041C19.1532 22.8145 18.4463 22.9612 17.8827 22.6491C16.6414 21.9586 15.1735 21.3085 11.9346 18.0654C8.69565 14.8223 8.04134 13.3586 7.35082 12.1172C7.03881 11.5537 7.18547 10.8467 7.69582 10.4538L10.0477 8.62437C10.5883 8.2032 10.7128 7.4364 10.3332 6.86576L8.42307 4.00027L6.14515 0.583354C5.75744 0.00175901 4.98132 -0.172848 4.38191 0.18662L1.75483 1.76266C1.04486 2.18095 0.522973 2.85641 0.297273 3.649C-0.421137 6.26829 -0.565979 12.0463 8.69407 21.3064C17.9541 30.5664 23.7316 30.4211 26.3509 29.7026C27.1435 29.477 27.819 28.9551 28.2373 28.2451L29.8133 25.6181C30.1728 25.0186 29.9982 24.2425 29.4166 23.8548Z" fill="#D35400"/>
<path d="M17.0685 4.65458C21.9224 4.65997 25.8561 8.59355 25.8615 13.4476C25.8615 13.7332 26.093 13.9648 26.3787 13.9648C26.6644 13.9648 26.896 13.7333 26.896 13.4476C26.89 8.02251 22.4936 3.62609 17.0685 3.62012C16.7829 3.62012 16.5513 3.85168 16.5513 4.13738C16.5512 4.42296 16.7828 4.65458 17.0685 4.65458Z" fill="#D35400"/>
<path d="M17.0685 7.75815C20.2093 7.76184 22.7544 10.307 22.7581 13.4477C22.7581 13.7334 22.9896 13.965 23.2753 13.965C23.561 13.965 23.7926 13.7334 23.7926 13.4477C23.7883 9.7359 20.7804 6.72791 17.0685 6.72363C16.7829 6.72363 16.5513 6.95519 16.5513 7.24089C16.5513 7.52659 16.7828 7.75815 17.0685 7.75815Z" fill="#D35400"/>
<path d="M17.0685 10.8616C18.4961 10.8633 19.653 12.0202 19.6547 13.4478C19.6547 13.7334 19.8862 13.965 20.1719 13.965C20.4576 13.965 20.6892 13.7335 20.6892 13.4478C20.6869 11.4491 19.0672 9.82943 17.0685 9.82715C16.7829 9.82715 16.5513 10.0587 16.5513 10.3444C16.5512 10.63 16.7828 10.8616 17.0685 10.8616Z" fill="#D35400"/>
</svg>
