<svg width="30" height="31" viewBox="0 0 30 31" fill="none" xmlns="http://www.w3.org/2000/svg">
<path d="M29.8169 29.791L20.6888 20.6629C22.5848 18.5578 23.75 15.7823 23.75 12.7329C23.75 6.18508 18.4229 0.85791 11.875 0.85791C5.32717 0.85791 0 6.18508 0 12.7329C0 19.2808 5.32717 24.608 11.875 24.608C14.9244 24.608 17.6999 23.4427 19.805 21.5467L28.9331 30.6748C29.0552 30.7969 29.2151 30.8579 29.375 30.8579C29.5349 30.8579 29.6948 30.7969 29.817 30.6748C30.0611 30.4306 30.0611 30.0351 29.8169 29.791ZM11.875 23.3579C6.01623 23.3579 1.25004 18.5917 1.25004 12.7329C1.25004 6.8742 6.01623 2.10789 11.875 2.10789C17.7338 2.10789 22.5 6.87414 22.5 12.7329C22.5 18.5917 17.7337 23.3579 11.875 23.3579Z" fill="#222222"/>
<path d="M18.125 12.1079H12.5V6.48293C12.5 6.13746 12.2204 5.85791 11.875 5.85791C11.5296 5.85791 11.25 6.13746 11.25 6.48293V12.1079H5.62502C5.27955 12.1079 5 12.3875 5 12.7329C5 13.0784 5.27955 13.358 5.62502 13.358H11.25V18.983C11.25 19.3284 11.5296 19.608 11.875 19.608C12.2205 19.608 12.5001 19.3284 12.5001 18.983V13.358H18.1251C18.4705 13.358 18.7501 13.0784 18.7501 12.7329C18.75 12.3875 18.4705 12.1079 18.125 12.1079Z" fill="#222222"/>
</svg>
