<svg width="102" height="22" viewBox="0 0 102 22" fill="none" xmlns="http://www.w3.org/2000/svg">
<path d="M0.645477 19.0414L0 20.2248H22.2152L11.1345 0.161212V13.5011L3.06601 18.3959L4.1956 17.6967L0.806846 19.7407L3.06601 18.3421L11.1345 3.81891V0.107422L0.645477 19.0414Z" fill="#222222"/>
<path d="M24.3667 6.50856C24.3667 2.52812 27.4327 0 31.0904 0C33.7261 0 35.3398 1.34474 36.308 2.79707L34.1026 3.98044C33.511 3.06601 32.4352 2.31296 31.0904 2.31296C28.7775 2.31296 27.1638 4.08802 27.1638 6.45477C27.1638 8.82152 28.8312 10.5966 31.0904 10.5966C32.22 10.5966 33.242 10.1125 33.7799 9.62836V8.12225H30.4449V5.7555H36.4694V10.5966C35.1784 12.0489 33.4034 12.9633 31.0904 12.9633C27.4327 13.0709 24.3667 10.489 24.3667 6.50856ZM39.3202 6.50856C39.3202 2.74328 42.1173 0 45.8826 0C49.7017 0 52.4987 2.74328 52.4987 6.50856C52.4987 10.3276 49.7017 13.0171 45.8826 13.0171C42.1173 13.0171 39.3202 10.3276 39.3202 6.50856ZM49.7017 6.50856C49.7017 4.14181 48.1956 2.36675 45.8826 2.36675C43.5696 2.36675 42.0635 4.14181 42.0635 6.50856C42.0635 8.87531 43.5696 10.6504 45.8826 10.6504C48.1956 10.6504 49.7017 8.87531 49.7017 6.50856ZM54.8655 11.0269L56.3178 8.98289C57.2322 9.89731 58.577 10.7042 60.2982 10.7042C61.7506 10.7042 62.5036 10.0049 62.5036 9.30562C62.5036 7.10024 55.242 8.60636 55.242 3.87286C55.242 1.77506 57.0709 0.0537897 60.0293 0.0537897C62.0195 0.0537897 63.687 0.645477 64.9242 1.82885L63.4718 3.76528C62.4498 2.79707 61.1051 2.36675 59.8141 2.36675C58.6845 2.36675 58.0391 2.85086 58.0391 3.6577C58.0391 5.64792 65.3007 4.30318 65.3007 9.03667C65.3007 11.3496 63.6332 13.0709 60.2444 13.0709C57.7701 13.0171 55.9951 12.2103 54.8655 11.0269ZM76.9731 12.802V7.53056H71.0562V12.802H68.3667V0.215159H71.0562V5.16381H76.9731V0.215159H79.7163V12.802H76.9731ZM83.4816 0.215159H86.1711V12.802H83.4816V0.215159ZM98.7041 12.802L92.6797 4.57213V12.802H89.9902V0.215159H92.7334L98.5965 8.12225V0.215159H101.286V12.802H98.7041ZM25.0122 21.3545L25.3349 20.8704C25.7114 21.3007 26.088 21.4621 26.7334 21.4621C27.4327 21.4621 28.0782 21.1394 28.0782 20.1711V19.5795C27.7555 20.0098 27.2713 20.3325 26.6797 20.3325C25.5501 20.3325 24.797 19.5257 24.797 18.1271C24.797 16.7824 25.5501 15.9218 26.6797 15.9218C27.2713 15.9218 27.7555 16.1907 28.0782 16.6748V16.0293H28.7237V20.1711C28.7237 21.5697 27.7555 22 26.6797 22C26.0342 22 25.5501 21.8386 25.0122 21.3545ZM28.132 19.0416V17.2127C27.9168 16.8362 27.3789 16.5134 26.841 16.5134C25.9804 16.5134 25.4963 17.2127 25.4963 18.1271C25.4963 19.0416 25.9804 19.7408 26.841 19.7408C27.3789 19.7408 27.863 19.4181 28.132 19.0416ZM30.0684 20.2787V16.0293H30.7139V16.7286C31.0366 16.2983 31.5745 15.9755 32.1124 15.9755V16.6748H31.8435C31.4132 16.6748 30.8753 16.9976 30.7139 17.3741V20.3863H30.0684V20.2787ZM32.7579 18.1271C32.7579 16.89 33.5647 15.9218 34.8557 15.9218C36.1467 15.9218 36.9535 16.89 36.9535 18.1271C36.9535 19.3643 36.1467 20.3863 34.8557 20.3863C33.5647 20.3863 32.7579 19.3643 32.7579 18.1271ZM36.2542 18.1271C36.2542 17.2665 35.7701 16.5134 34.8557 16.5134C33.9413 16.5134 33.4572 17.2665 33.4572 18.1271C33.4572 18.9878 33.9413 19.7946 34.8557 19.7946C35.7701 19.7946 36.2542 19.0416 36.2542 18.1271ZM40.8801 20.2787V19.687C40.5574 20.0636 40.0195 20.3863 39.374 20.3863C38.4596 20.3863 38.0293 19.956 38.0293 19.0416V16.0293H38.6748V18.8264C38.6748 19.5795 39.0513 19.7946 39.643 19.7946C40.1809 19.7946 40.665 19.4719 40.8801 19.1491V16.0293H41.5256V20.2787H40.8801ZM43.5158 19.6333V21.8924H42.8704V16.0293H43.5158V16.6748C43.8386 16.2445 44.3765 15.9218 44.9682 15.9218C46.0977 15.9218 46.8508 16.7824 46.8508 18.1271C46.8508 19.5257 46.0977 20.3863 44.9682 20.3863C44.3765 20.3863 43.8924 20.1174 43.5158 19.6333ZM46.1515 18.1271C46.1515 17.2127 45.6674 16.5134 44.8068 16.5134C44.2689 16.5134 43.7848 16.8362 43.5158 17.2127V19.1491C43.731 19.5257 44.2689 19.8484 44.8068 19.8484C45.6674 19.7946 46.1515 19.0954 46.1515 18.1271Z" fill="#222222"/>
</svg>
