<svg width="61" height="46" viewBox="0 0 61 46" fill="none" xmlns="http://www.w3.org/2000/svg">
<path d="M54.2783 25.6239L41.5473 27.0496L41.5648 30.1285C37.3925 30.9376 33.9725 31.3443 30.5525 31.3443C27.1194 31.3443 23.6863 30.9376 19.5009 30.1241L19.5228 27.0496L6.79181 25.6239L10.3211 31.4187L6.36758 35.8664L6.90114 35.9583C11.5238 36.7542 14.3403 37.126 16.5314 37.3053C16.5314 38.0138 16.5314 38.7704 16.527 39.6144C21.4165 40.6815 25.9779 41.2151 30.535 41.2151C35.0965 41.2151 39.6536 40.6815 44.5474 39.6144C44.5474 38.766 44.5474 38.0138 44.5474 37.3053C46.7385 37.1216 49.5506 36.7499 54.1602 35.9583L54.6937 35.8664L50.7402 31.4187L54.2783 25.6239ZM16.5445 29.5119C16.5401 29.5119 16.5358 29.5119 16.5314 29.5119C16.5314 29.6081 16.5314 29.6955 16.5314 29.7918L11.2658 29.2538L11.6026 29.7568L16.5358 30.2772C16.5358 30.4478 16.5358 30.6096 16.5358 30.7758L11.9524 30.2772L12.311 30.8151L16.5358 31.2743C16.5358 31.4362 16.5358 31.598 16.5358 31.7598L12.6478 31.3268L12.8446 31.6198L12.639 31.8254L16.5358 32.2584C16.5358 32.4027 16.5358 32.5426 16.5358 32.687L12.2454 32.219L11.795 32.6695L16.5358 33.1855C16.5358 33.3255 16.5358 33.4698 16.5358 33.6097L11.4582 33.0062L11.0121 33.4479L16.5358 34.1083C16.5358 34.2395 16.5358 34.3663 16.5358 34.4932L10.6754 33.8109L10.6448 33.8197L10.2555 34.2045L16.5358 35.0224C16.5358 35.2279 16.5358 35.4378 16.5358 35.6434C14.6771 35.4728 12.2454 35.1798 8.40122 34.6375L11.1696 31.5018L8.81232 27.4607L17.8434 28.471L17.2661 28.9389L10.5442 28.178L10.8984 28.7072L16.7326 29.3719L16.5445 29.5119ZM43.8433 31.3443V31.8298V32.3283V32.7526V33.2511V33.6797V34.1783V35.6959V36.0064V36.295V36.7586V37.0822V37.3621V38.1712C38.8882 39.2252 34.5761 39.7194 30.3076 39.7194C26.1135 39.7194 21.9325 39.2471 17.1918 38.2412V37.3621V37.0822V36.7586V36.295V36.0064V35.6959V34.1783V33.6797V33.2511V32.7569V32.3327V31.8341V31.3487V30.9682C17.7691 31.0907 18.3289 31.2044 18.8712 31.3137C18.8799 31.3137 18.8843 31.3181 18.893 31.3181C18.9193 31.3225 18.9455 31.3268 18.9717 31.3312C19.0373 31.3443 19.1073 31.3574 19.1729 31.3706C19.1817 31.3706 19.186 31.3749 19.1948 31.3749C19.291 31.3924 19.3828 31.4099 19.4747 31.4274C19.4834 31.4274 19.4878 31.4318 19.4922 31.4318C20.7911 31.6854 21.9981 31.8954 23.1309 32.0659C23.5245 32.1272 23.9093 32.1796 24.2898 32.2321C24.4079 32.2496 24.5303 32.2671 24.6484 32.2802C24.9546 32.3196 25.2563 32.3546 25.5581 32.3896C25.6587 32.3983 25.7593 32.4114 25.8599 32.4202C27.5567 32.5995 29.1224 32.6826 30.6662 32.6826C32.1357 32.6826 33.6227 32.6082 35.2102 32.4508C35.3108 32.442 35.4114 32.4289 35.512 32.4202C35.8531 32.3852 36.1986 32.3458 36.5528 32.3021C36.6753 32.289 36.7978 32.2715 36.9246 32.254C37.3051 32.2015 37.6943 32.149 38.0923 32.0878C39.1813 31.926 40.3358 31.7248 41.5735 31.4843C41.5823 31.4843 41.5866 31.4799 41.591 31.4799C41.6872 31.4624 41.7791 31.4449 41.8709 31.4274C41.8753 31.4274 41.884 31.4274 41.8928 31.423C41.9627 31.4099 42.0327 31.3924 42.1027 31.3793C42.1246 31.3749 42.1508 31.3706 42.1727 31.3662C42.1814 31.3662 42.1858 31.3618 42.1945 31.3618C42.7281 31.2569 43.2704 31.1475 43.8346 31.0251V31.3443H43.8433ZM52.6689 34.6244C48.8377 35.1667 46.4061 35.4597 44.5518 35.6303C44.5518 35.4203 44.5518 35.2104 44.5518 35.0049L50.8145 34.1914L50.4253 33.8065L50.3947 33.7978L44.5518 34.4801C44.5518 34.3532 44.5518 34.2264 44.5518 34.0952L50.0579 33.4392L49.6118 32.9975L44.5518 33.601C44.5518 33.461 44.5518 33.3211 44.5518 33.1768L49.2751 32.6651L48.8246 32.2146L44.5518 32.6782C44.5518 32.5383 44.5518 32.3983 44.5518 32.2496L48.431 31.8166L48.2255 31.6111L48.4179 31.3181L44.5474 31.751C44.5474 31.5936 44.5474 31.4318 44.5474 31.27L48.7546 30.8108L49.1133 30.2728L44.5474 30.767C44.5474 30.6052 44.5474 30.439 44.5474 30.2685L49.4631 29.7524L49.7999 29.2495L44.5474 29.7874C44.5474 29.6955 44.5474 29.6081 44.5474 29.5119C44.5387 29.5119 44.5343 29.5162 44.5256 29.5162L44.3375 29.3632L50.1716 28.6984L50.5259 28.1692L43.7996 28.9302L43.2223 28.4622L52.2534 27.452L49.8961 31.493L52.6689 34.6244Z" fill="white"/>
<path d="M19.7633 33.5266C19.5796 33.4916 19.3916 33.4566 19.1816 33.4173C19.1467 33.4085 19.1204 33.4042 19.0854 33.3998C19.0854 33.6491 19.0854 33.8109 19.0854 34.0077C19.0854 34.0908 19.0854 34.1826 19.0854 34.2876C19.1948 34.3094 19.2472 34.3182 19.3566 34.3401C19.3566 35.0004 19.3566 35.4465 19.3566 35.9626C19.3566 36.0632 19.3566 36.1681 19.3566 36.2775C19.3566 36.3693 19.3566 36.4655 19.3566 36.5618C19.3566 36.6492 19.3566 36.7367 19.3566 36.8329C19.2472 36.8154 19.1948 36.8023 19.0854 36.7761C19.0854 36.8548 19.0854 36.9247 19.0854 36.9903C19.0854 37.1084 19.0854 37.2134 19.0854 37.3227C19.0854 37.4058 19.0854 37.4933 19.0854 37.5939C19.0854 37.6201 19.0854 37.642 19.0854 37.6682C19.654 37.7776 19.9426 37.8257 20.5155 37.9219C20.5155 37.8213 20.5155 37.7295 20.5155 37.6332C20.5155 37.5414 20.5155 37.4496 20.5155 37.3621C20.5155 37.2484 20.5155 37.1347 20.5155 37.0297C20.5155 36.881 20.5155 36.7411 20.5155 36.6011C20.5155 36.5049 20.5155 36.4131 20.5155 36.3168C20.5155 36.2119 20.5155 36.1069 20.5155 35.9976C20.5155 35.5646 20.5155 35.1098 20.5155 34.5369C20.7561 34.5762 20.8785 34.5981 21.1147 34.6375C21.1147 35.1754 21.1147 35.604 21.1147 36.0151C21.1147 36.12 21.1147 36.225 21.1147 36.33C21.1147 36.4262 21.1147 36.518 21.1147 36.6142C21.1147 36.7542 21.1147 36.8941 21.1147 37.0385C21.1147 37.1434 21.1147 37.2571 21.1147 37.3665C21.1147 37.4539 21.1147 37.5458 21.1147 37.642C21.1147 37.7644 21.1147 37.8825 21.1147 38.0181C21.692 38.1099 21.9763 38.1449 22.5535 38.2193C22.5535 37.9919 22.5535 37.8432 22.5535 37.6726C22.5535 37.5851 22.5535 37.4933 22.5535 37.3883C22.5535 37.3708 22.5535 37.3533 22.5535 37.3315C22.4442 37.3184 22.383 37.3096 22.2737 37.2965C22.2737 37.2134 22.2737 37.139 22.2737 37.0647C22.2737 36.916 22.2737 36.7761 22.2737 36.6449C22.2737 36.5443 22.2737 36.4524 22.2737 36.3562C22.2737 36.2512 22.2737 36.1463 22.2737 36.0413C22.2737 35.6696 22.2737 35.2978 22.2737 34.8036C22.383 34.8168 22.4442 34.8255 22.5535 34.8386C22.5535 34.48 22.5535 34.3094 22.5535 33.9508C21.7532 33.8459 21.1803 33.7628 20.5768 33.6622C20.3187 33.6272 20.052 33.5791 19.7633 33.5266Z" fill="white"/>
<path d="M26.0698 34.3181C25.9954 34.3137 25.9254 34.3093 25.8598 34.3049C25.7549 34.2962 25.6543 34.2918 25.5581 34.2831C25.4531 34.2743 25.3525 34.2656 25.2563 34.2612C24.8452 34.2262 24.4778 34.1912 23.9443 34.13C23.9443 34.4886 23.9443 34.6636 23.9443 35.0222C24.0624 35.0353 24.1148 35.0397 24.2329 35.0484C24.2329 35.4639 24.2329 35.7919 24.2329 36.1068C24.2329 36.2117 24.2329 36.3123 24.2329 36.4129C24.2329 36.5091 24.2329 36.6097 24.2329 36.7103C24.2329 36.8415 24.2329 36.9815 24.2329 37.1302C24.2329 37.2264 24.2329 37.327 24.2329 37.4363C24.2329 37.4713 24.2329 37.5063 24.2329 37.5413C24.1148 37.5281 24.0624 37.5238 23.9443 37.515C23.9443 37.5937 23.9443 37.6637 23.9443 37.7249C23.9443 37.9567 23.9443 38.1273 23.9443 38.4072C24.6309 38.4815 24.9764 38.5122 25.663 38.569C25.663 38.2498 25.663 38.0748 25.663 37.7818C25.663 37.7468 25.663 37.7162 25.663 37.6768C25.5581 37.6681 25.5056 37.6637 25.4006 37.655C25.4006 37.585 25.4006 37.5281 25.4006 37.4713C25.4006 37.257 25.4006 37.0952 25.4006 36.8371C25.4619 36.8415 25.51 36.8459 25.5581 36.8503C25.6674 36.859 25.7636 36.8634 25.8598 36.8721C25.9517 36.8809 26.0435 36.8853 26.1616 36.894C27.0188 36.9552 27.2068 36.6884 27.2068 35.8881C27.2068 35.6694 27.2068 35.5557 27.2068 35.3371C27.2112 34.5017 26.8001 34.3705 26.0698 34.3181ZM26.061 36.133C25.9867 36.1286 25.9211 36.1243 25.8598 36.1199C25.7549 36.1112 25.663 36.1068 25.5581 36.098C25.51 36.0937 25.4575 36.0893 25.4006 36.0849C25.4006 35.7132 25.4006 35.5295 25.4006 35.1621C25.4619 35.1665 25.51 35.1709 25.5581 35.1752C25.663 35.184 25.7549 35.1884 25.8598 35.1971C25.9211 35.2015 25.9823 35.2059 26.061 35.2102C26.061 35.5776 26.061 35.7613 26.061 36.133Z" fill="white"/>
<path d="M30.6706 34.4756C29.9271 34.48 29.5554 34.4712 28.8119 34.4537C28.5757 35.8007 28.4577 36.4742 28.2215 37.8213C28.0947 37.8169 28.0291 37.8125 27.9066 37.8038C27.9066 38.1624 27.9066 38.3373 27.9066 38.6959C28.4358 38.7178 28.6982 38.7266 29.2274 38.7353C29.2886 38.3198 29.3148 38.1143 29.3717 37.6988C29.6603 37.7032 29.8047 37.7075 30.0977 37.7075C30.1589 38.1274 30.1895 38.3286 30.2507 38.7484C30.7755 38.7528 31.038 38.7484 31.5671 38.7353C31.5671 38.3811 31.5671 38.2017 31.5671 37.8431C31.4491 37.8431 31.3922 37.8475 31.2741 37.8519C31.0336 36.5005 30.9155 35.827 30.6706 34.4756ZM29.4679 36.9597C29.5772 36.2468 29.6297 35.8838 29.7391 35.171C29.844 35.8882 29.8965 36.2468 30.0058 36.9641C29.7915 36.9597 29.6822 36.9641 29.4679 36.9597Z" fill="white"/>
<path d="M36.2161 37.1477C36.2161 36.999 36.2161 36.8591 36.2161 36.7323C36.2161 36.6273 36.2161 36.5311 36.2161 36.4305C36.2161 36.3299 36.2161 36.2293 36.2161 36.1287C36.2161 35.8182 36.2161 35.499 36.2161 35.0922C36.3254 35.0791 36.3822 35.0791 36.4959 35.066C36.4959 34.7074 36.4916 34.5324 36.4916 34.1738C36.216 34.2001 36.0149 34.2219 35.8093 34.2394C35.7131 34.2482 35.6125 34.2569 35.5076 34.2657C35.4157 34.2744 35.3151 34.2832 35.2058 34.2919C35.1927 34.2919 35.1795 34.2963 35.1664 34.2963C34.8734 35.0791 34.7247 35.4727 34.4317 36.2556C34.4273 36.2556 34.4229 36.2556 34.4142 36.2556C34.4142 35.4946 34.4142 35.1141 34.4142 34.3488C33.85 34.3838 33.5658 34.4012 32.9972 34.4275C32.9972 34.7861 32.9972 34.961 32.9972 35.3153C33.1066 35.3109 33.1634 35.3065 33.2727 35.3022C33.2727 36.2993 33.2727 36.8022 33.2727 37.7994C33.1634 37.8038 33.1066 37.8081 32.9972 37.8125C32.9972 38.1711 32.9972 38.3461 32.9972 38.7047C33.5264 38.6828 33.7888 38.6653 34.318 38.6303C34.611 37.8256 34.7553 37.4276 35.0484 36.6186C35.0571 36.6186 35.0615 36.6142 35.0702 36.6142C35.0702 37.4014 35.0702 37.795 35.0702 38.5822C35.6388 38.5385 35.923 38.5122 36.4916 38.4554C36.4916 38.1667 36.4916 37.9962 36.4916 37.7513C36.4916 37.6944 36.4916 37.6332 36.4916 37.5632C36.3779 37.5763 36.3254 37.5807 36.2117 37.5895C36.2117 37.5414 36.2117 37.502 36.2117 37.4583C36.2161 37.3445 36.2161 37.2396 36.2161 37.1477Z" fill="white"/>
<path d="M41.3067 36.5834C41.3067 36.4828 41.3067 36.391 41.3067 36.2992C41.3067 36.1898 41.3067 36.0849 41.3067 35.9843C41.3067 35.4726 41.3067 35.0309 41.3067 34.3749C41.4204 34.3574 41.4773 34.3399 41.5866 34.3224C41.5866 34.1562 41.5866 34.0294 41.5866 33.9025C41.5866 33.8063 41.5866 33.7057 41.5866 33.592C41.5866 33.5439 41.5866 33.4914 41.5866 33.4346C41.451 33.4608 41.3198 33.4871 41.1974 33.5089C40.8956 33.5614 40.6288 33.6095 40.3752 33.6532C39.8197 33.7451 39.3124 33.8194 38.5821 33.92C38.5821 34.2743 38.5821 34.4536 38.5821 34.8078C38.6914 34.7903 38.7439 34.786 38.8532 34.7728C38.7614 35.2889 38.6914 35.6738 38.6214 36.0586C38.6039 36.1636 38.5821 36.2685 38.5646 36.3735C38.5471 36.4697 38.5296 36.5659 38.5121 36.6621C38.4859 36.7933 38.4596 36.9377 38.4334 37.0864C38.4202 37.1651 38.4028 37.2438 38.3896 37.3313C38.2191 37.3531 38.136 37.3663 37.9654 37.3881C37.9654 37.3969 37.9654 37.4056 37.9654 37.4144C37.9654 37.5237 37.9654 37.6199 37.9654 37.703C37.9654 37.8823 37.9654 38.0398 37.9654 38.2759C38.3547 38.2278 38.5515 38.2016 38.9363 38.1447C39.6667 38.0398 40.0297 37.9829 40.7556 37.8561C41.1449 37.7905 41.3373 37.7555 41.7265 37.6811C41.7265 37.6593 41.7265 37.6374 41.7265 37.6155C41.7265 37.515 41.7265 37.4275 41.7265 37.3444C41.7265 37.2351 41.7265 37.1301 41.7265 37.012C41.7265 36.9464 41.7265 36.8721 41.7265 36.789C41.556 36.8196 41.4729 36.8415 41.3111 36.8721C41.3067 36.7671 41.3067 36.6753 41.3067 36.5834ZM40.1477 36.0193C40.1477 36.1242 40.1477 36.2292 40.1477 36.3385C40.1477 36.4304 40.1477 36.5222 40.1477 36.6228C40.1477 36.754 40.1477 36.8939 40.1477 37.047C40.1477 37.0558 40.1477 37.0601 40.1477 37.0645C39.8897 37.1039 39.7585 37.1301 39.5005 37.1695C39.5092 37.1301 39.5136 37.0951 39.5224 37.0601C39.5486 36.9071 39.5748 36.7671 39.6011 36.6359C39.6186 36.5397 39.6361 36.4391 39.6536 36.3473C39.671 36.2379 39.6929 36.133 39.7104 36.028C39.7891 35.595 39.8635 35.1796 39.9641 34.6023C40.0384 34.5891 40.0778 34.5848 40.1477 34.5717C40.1477 35.1577 40.1477 35.5732 40.1477 36.0193Z" fill="white"/>
<path d="M35.512 33.8371C35.6082 33.8284 35.7088 33.8196 35.8137 33.8109C35.8618 33.8065 35.9099 33.8021 35.958 33.7978C35.958 33.5397 35.958 33.4085 35.958 33.1461C35.9056 33.1505 35.8618 33.1549 35.8137 33.1592C35.7088 33.168 35.6082 33.1767 35.512 33.1855C35.407 33.1942 35.3064 33.203 35.2102 33.2117C34.6723 33.2555 34.2306 33.2861 33.5527 33.3167C33.5527 33.5747 33.5527 33.7015 33.5527 33.9639C34.2306 33.929 34.6723 33.9027 35.2102 33.859C35.3064 33.8546 35.407 33.8502 35.512 33.8371Z" fill="white"/>
<path d="M18.3507 18.7619L18.1627 19.1118L18.2895 19.4923C21.9544 29.175 27.5436 26.7609 30.4957 30.3821V30.417C30.5001 30.4127 30.5044 30.4083 30.5132 30.3996C30.5176 30.4083 30.5263 30.3864 30.5263 30.3864C33.4827 26.7696 39.0676 29.1794 42.7325 19.4966L42.8593 19.1162L42.6713 18.7663C40.97 15.5956 40.5895 9.40282 42.8768 4.50898L43.6465 3.14886H42.1421C33.8545 3.14886 30.5132 0 30.5132 0C30.5132 0 27.1675 3.14886 18.8799 3.14886H17.3755L18.1496 4.50898C20.4325 9.39845 20.052 15.5956 18.3507 18.7619ZM30.4957 1.7756C30.4957 1.7756 34.4842 4.54835 41.3899 4.54835C39.2032 9.80081 39.7192 15.8842 41.3986 19.2342C39.2862 24.666 36.601 25.6894 34.0032 26.6778C32.8092 27.1282 31.5847 27.6006 30.5088 28.4753C29.433 27.6006 28.2084 27.1282 27.0145 26.6778C24.4123 25.685 21.727 24.666 19.6147 19.2342C21.294 15.8842 21.8101 9.80518 19.6234 4.54835C26.4022 4.54835 30.4957 1.7756 30.4957 1.7756Z" fill="white"/>
<path d="M20.1088 19.2561C22.1337 24.3249 24.6921 25.2958 27.1675 26.2405C28.2346 26.6472 29.4329 27.102 30.5131 27.898C31.589 27.102 32.7873 26.6472 33.8588 26.2405C36.3297 25.2958 38.8926 24.3249 40.9175 19.2561C39.3474 15.9367 38.8313 10.1507 40.7338 5.01193C35.0265 4.86761 31.4359 2.90395 30.4956 2.32666C29.5422 2.89958 25.8948 4.86761 20.2925 5.01193C22.1993 10.1463 21.6788 15.9367 20.1088 19.2561ZM20.9222 5.45364C25.9079 5.20436 29.2886 3.54684 30.4913 2.86022C31.6852 3.55121 35.0308 5.20873 40.0996 5.45364C38.359 10.6449 38.98 16.046 40.4233 19.2649C38.4902 23.9707 36.1636 24.8585 33.7013 25.79C32.6911 26.1748 31.5627 26.6034 30.5087 27.3251C29.4548 26.6034 28.3264 26.1792 27.3162 25.79C24.8583 24.8585 22.5273 23.9707 20.5986 19.2649C22.0462 16.046 22.6629 10.6449 20.9222 5.45364Z" fill="white"/>
<path d="M58.3106 7.39994C56.758 7.76294 55.8265 9.33299 55.774 10.0896C55.7171 10.8418 55.8221 11.3185 56.8323 12.4644C57.8164 13.5796 58.1925 14.2181 58.0875 15.154C57.8207 17.52 55.8789 17.6512 54.978 17.1439C54.1077 16.6585 54.1471 16.3261 53.0756 16.0812C51.8729 15.81 51.0682 16.466 51.0682 16.466C51.0682 16.466 51.3831 15.8756 52.5858 15.7706C52.5858 15.7706 51.7417 14.8872 52.179 12.5562C52.179 12.5562 51.5143 12.425 51.5187 11.7865C51.5274 10.8681 53.7885 10.6275 52.7651 12.8973C52.7651 12.8973 54.287 12.718 54.1602 10.5488C54.1208 9.8753 54.2652 9.28489 54.7025 10.2689C55.2667 8.96126 54.7812 8.45394 54.462 8.04721C54.2039 7.71921 54.3089 7.37371 54.9387 7.65798C54.5757 6.49903 53.994 5.62434 53.2549 5.33132C53.2593 5.31383 53.2636 5.29634 53.2636 5.27884C53.2636 5.20012 53.198 5.13452 53.1193 5.13452H48.7765C48.6978 5.13452 48.6366 5.20012 48.6366 5.27884C48.6366 5.30509 48.6453 5.33132 48.6584 5.35319C48.6541 5.35319 48.6541 5.35756 48.6497 5.35756C48.6497 5.35756 48.6847 5.91736 48.1774 6.03107C47.6744 6.14915 46.8522 6.12291 46.5811 6.54713C46.3143 6.97135 46.9966 7.41744 47.0272 7.85915C47.775 7.14629 48.9427 7.5224 48.6759 8.31399C48.4442 9.00936 47.2371 8.7557 46.9966 8.46706C47.0228 8.77757 46.791 9.3155 47.3639 9.56041C47.8975 9.78783 48.7153 9.71785 48.7153 9.71785C48.7153 9.71785 48.5885 9.93652 48.2911 10.2733C47.9412 10.5094 46.9616 11.043 46.0781 10.4089C45.0416 9.66974 43.7602 9.49481 43.4847 7.96849C43.2092 6.4378 42.5138 6.31097 42.5138 6.31097C42.5138 6.31097 41.8009 8.11718 42.1027 8.64637C42.7806 9.82281 44.8711 11.0255 45.6845 11.8696C46.1656 11.7034 46.6467 11.5678 47.224 11.2529C46.756 11.6159 46.1612 11.992 45.4221 12.3419C44.2763 12.8798 43.6422 13.9513 42.7631 12.6043C42.2864 11.8696 41.696 11.734 41.696 11.734C41.696 11.734 41.5036 12.9192 41.7222 14.135C41.7791 14.4586 42.1596 14.7254 43.0823 14.5373C44.3856 14.2706 45.5621 13.6452 46.4105 13.2647C46.4805 16.1511 47.5214 16.501 49.0346 17.7212C49.0346 17.7212 47.7619 17.2357 46.8522 16.1468C44.5081 16.7328 43.9002 19.5799 43.9002 19.5799C43.9002 19.5799 45.374 20.1965 45.5183 21.7666C45.7633 24.4256 42.8462 24.5874 42.8462 24.5874L42.4832 25.7508L46.7866 25.1691C46.7866 25.1691 47.7532 23.5772 47.6001 22.5713C47.6001 22.5713 47.3902 22.8774 46.9528 23.153C47.3027 22.6019 48.1686 20.8307 46.8872 19.6105C47.0184 20.3059 46.8785 20.7301 46.8785 20.7301C46.8785 20.7301 45.3609 19.6324 46.9878 18.2985C47.9193 17.5331 50.1891 18.8364 49.1351 20.3584C51.6848 20.1003 51.7504 23.4897 48.4048 23.8483C48.2517 24.3119 48.0418 25.0423 48.0418 25.0423L52.5071 24.5612C52.5071 24.5612 53.3161 23.2754 52.9794 22.1121C52.7476 22.4182 52.4546 22.7856 52.0478 22.9124C52.0478 22.9124 52.9007 21.9634 52.9663 21.1849C52.9663 21.1849 52.5114 21.5348 52.1047 21.5567C52.9663 21.1849 53.4692 19.9866 53.5742 18.7621C50.3903 19.2606 51.5318 15.8625 53.3817 17.0958C54.3701 17.7562 54.9999 18.5259 56.5699 18.106C58.3412 17.6293 59.2421 15.4864 58.6167 14.0738C57.6021 11.7908 56.4431 11.5503 56.4431 10.5182C56.4431 9.48606 57.051 8.51516 58.0613 8.33585C59.0715 8.16092 60.0862 9.37236 59.4301 10.2077C58.7741 11.0386 60.8121 10.8112 60.9871 9.31113C61.1227 8.34023 60.1911 6.9626 58.3106 7.39994ZM49.555 6.40281H48.9121L49.6556 5.9436L49.555 6.40281Z" fill="white"/>
<path d="M50.937 3.75688C50.9676 3.75688 50.9982 3.74813 51.0157 3.72626C51.0376 3.70877 51.0463 3.67816 51.0463 3.64754C51.0463 3.61693 51.0376 3.59069 51.0157 3.56882C50.9938 3.55132 50.9676 3.53821 50.937 3.53821C50.9064 3.53821 50.8801 3.55132 50.8626 3.56882C50.8408 3.58631 50.8276 3.61693 50.8276 3.64754C50.8276 3.67816 50.8408 3.70877 50.8626 3.72626C50.8801 3.74813 50.9064 3.75688 50.937 3.75688Z" fill="white"/>
<path d="M48.7415 3.95805C48.7984 4.0324 48.8509 4.098 48.8946 4.1636H48.7853C48.7065 4.1636 48.6453 4.22483 48.6453 4.30793C48.6453 4.38665 48.7109 4.45225 48.7853 4.45225H48.8159V4.53972C48.8334 4.53972 48.8465 4.53535 48.864 4.53535C48.9952 4.53535 49.1045 4.64468 49.1045 4.77588C49.1045 4.83711 49.0783 4.89396 49.0433 4.93332H49.7824C49.743 4.88959 49.7212 4.83711 49.7212 4.77588C49.7212 4.64468 49.8305 4.53535 49.9617 4.53535C50.0929 4.53535 50.2022 4.64468 50.2022 4.77588C50.2022 4.83711 50.1804 4.89396 50.141 4.93332H50.7708C50.7358 4.88959 50.7139 4.83711 50.7139 4.77588C50.7139 4.64468 50.8233 4.53535 50.9545 4.53535C51.0857 4.53535 51.195 4.64468 51.195 4.77588C51.195 4.83711 51.1688 4.89396 51.1338 4.93332H51.8423C51.8073 4.88959 51.781 4.83711 51.781 4.77588C51.781 4.64468 51.8904 4.53535 52.0216 4.53535C52.1572 4.53535 52.2621 4.64468 52.2621 4.77588C52.2621 4.83711 52.2403 4.89396 52.2009 4.93332H52.87C52.835 4.88959 52.8132 4.83711 52.8132 4.77588C52.8132 4.64468 52.9181 4.53535 53.0537 4.53535H53.0581V4.45225H53.1106C53.1893 4.45225 53.2549 4.38665 53.2549 4.30793C53.2549 4.22483 53.1893 4.1636 53.1106 4.1636H52.9094C52.9487 4.098 53.0056 4.02803 53.0581 3.95805C53.2111 3.76125 53.3773 3.55133 53.4736 3.26268C53.5567 3.00902 53.5829 2.72913 53.5523 2.47547C53.526 2.28304 53.4648 2.1081 53.3642 1.95941C53.2593 1.79759 53.1018 1.67076 52.9006 1.60516C52.7563 1.56142 52.5901 1.54394 52.4021 1.57018C52.2271 1.59204 52.0566 1.67076 51.8598 1.7626C51.7723 1.80196 51.6805 1.84569 51.5842 1.88505C51.5449 1.85444 51.4924 1.83258 51.4399 1.83258H51.2475L51.0769 1.52644C51.1032 1.50895 51.125 1.49145 51.1469 1.47396V1.46958C51.1644 1.45209 51.1819 1.43022 51.195 1.40836L51.5799 1.61828V0.848559L51.195 1.06286C51.1819 1.04099 51.1644 1.0235 51.1469 1.00163C51.125 0.979764 51.0988 0.962269 51.0726 0.944775L51.2912 0.555542H50.5171L50.7314 0.953524C50.7096 0.966644 50.6921 0.979764 50.6702 1.00163C50.6527 1.01913 50.6352 1.04536 50.6221 1.06723L50.2241 0.844189V1.61391L50.6177 1.39961C50.6352 1.42585 50.6527 1.45209 50.6702 1.46958V1.47396C50.6877 1.49145 50.7052 1.50457 50.7271 1.51769L50.5521 1.83258H50.3597C50.3028 1.83258 50.2503 1.85445 50.2154 1.88943C50.1148 1.85007 50.0186 1.80634 49.9267 1.76698C49.7255 1.67951 49.555 1.59641 49.3844 1.57455C49.1964 1.54831 49.0302 1.5658 48.8859 1.60953C48.6803 1.67514 48.5272 1.80196 48.4179 1.96378C48.3173 2.11248 48.2561 2.28741 48.2342 2.47984C48.2036 2.7335 48.2298 3.0134 48.3129 3.26705C48.4223 3.55132 48.5885 3.76125 48.7415 3.95805ZM51.453 2.68977C51.5755 2.68977 51.6717 2.58918 51.6717 2.4711V2.46235C51.8335 2.40549 51.9779 2.3399 52.1091 2.27429C52.2665 2.19995 52.4021 2.13872 52.4895 2.12997C52.5901 2.11685 52.6732 2.12122 52.7432 2.14309C52.8132 2.16933 52.8656 2.21744 52.9094 2.27429C52.9575 2.34427 52.9881 2.44048 53.0012 2.54107C53.0231 2.716 53.0012 2.90843 52.9487 3.08337C52.8831 3.28017 52.7519 3.45074 52.6251 3.60818C52.4895 3.78749 52.354 3.95368 52.2884 4.1636H51.7854C51.8773 4.01053 51.9341 3.82685 51.9341 3.6388C51.9341 3.20145 51.6542 2.82972 51.2694 2.68977H51.453ZM50.8189 1.12846C50.8451 1.10659 50.8801 1.0891 50.9239 1.0891C50.9632 1.0891 50.9982 1.10659 51.0244 1.12846C51.0463 1.1547 51.0638 1.18969 51.0638 1.23342C51.0638 1.27278 51.0463 1.31214 51.0244 1.33838C50.9982 1.36899 50.9632 1.38212 50.9239 1.38212C50.8845 1.38212 50.8495 1.36462 50.8189 1.33838C50.7927 1.31214 50.7795 1.27716 50.7795 1.23342C50.7795 1.19406 50.7927 1.15907 50.8189 1.12846ZM51.2256 3.13148L51.0594 3.4245C51.0813 3.43762 51.0988 3.45511 51.1163 3.46823C51.1294 3.48135 51.1425 3.49885 51.1513 3.51634L51.4443 3.35015V3.93618L51.1557 3.77874C51.1469 3.79623 51.1338 3.81373 51.1207 3.82685C51.1032 3.84434 51.0857 3.85309 51.0682 3.86621L51.23 4.15485H50.6483L50.8102 3.85747C50.7927 3.84435 50.7795 3.8356 50.7708 3.82248C50.7533 3.80936 50.7402 3.78749 50.7314 3.77L50.434 3.93181V3.34578L50.7314 3.51634C50.7446 3.49885 50.7533 3.48135 50.7708 3.46386C50.7839 3.45074 50.797 3.43762 50.8145 3.42887L50.6483 3.12711H51.2256V3.13148ZM48.8159 2.54544C48.829 2.44486 48.8596 2.34864 48.9077 2.27867C48.9471 2.21744 49.0039 2.1737 49.0739 2.14746C49.1395 2.12997 49.2226 2.1256 49.3232 2.13434C49.4107 2.14309 49.5462 2.20432 49.7037 2.27867C49.8393 2.33989 49.988 2.40987 50.1541 2.4711V2.47547C50.1541 2.59355 50.2547 2.69414 50.3728 2.69414H50.5784C50.1891 2.83846 49.9136 3.20583 49.9136 3.64317C49.9136 3.83122 49.9661 4.0149 50.0623 4.16797H49.5244C49.4631 3.95805 49.3276 3.79187 49.1876 3.61256C49.0652 3.45511 48.9296 3.28455 48.8684 3.08774C48.8159 2.91281 48.7896 2.72038 48.8159 2.54544Z" fill="white"/>
<path d="M0.00863012 9.30234C0.183566 10.8024 2.2172 11.0298 1.56556 10.1989C0.909551 9.36794 1.92856 8.15651 2.93444 8.32707C3.9447 8.50638 4.54823 9.47727 4.54823 10.5094C4.54823 11.5415 3.39365 11.7821 2.37465 14.065C1.74487 15.4732 2.65017 17.6206 4.4214 18.0973C5.99145 18.5171 6.62123 17.7474 7.60962 17.087C9.45957 15.8537 10.6054 19.2475 7.41718 18.7533C7.52215 19.9778 8.02509 21.1761 8.89102 21.5479C8.48429 21.526 8.02946 21.1761 8.02946 21.1761C8.09506 21.9546 8.94788 22.9036 8.94788 22.9036C8.53678 22.7768 8.24813 22.4138 8.01634 22.1033C7.67521 23.2623 8.48866 24.5524 8.48866 24.5524L12.9539 25.0335C12.9539 25.0335 12.744 24.3031 12.5909 23.8395C9.24964 23.4809 9.31524 20.0915 11.8606 20.3496C10.8066 18.8276 13.0808 17.5243 14.0079 18.2897C15.6348 19.6236 14.1172 20.7213 14.1172 20.7213C14.1172 20.7213 13.9773 20.2971 14.1085 19.6017C12.8271 20.8219 13.693 22.5931 14.0429 23.1442C13.6056 22.8686 13.3956 22.5625 13.3956 22.5625C13.2426 23.5684 14.2091 25.1603 14.2091 25.1603L18.5125 25.742L18.1495 24.5786C18.1495 24.5786 15.2281 24.4168 15.4774 21.7578C15.6217 20.1877 17.0955 19.5711 17.0955 19.5711C17.0955 19.5711 16.4876 16.724 14.1435 16.138C13.2338 17.2226 11.9611 17.7124 11.9611 17.7124C13.4743 16.4966 14.5152 16.1467 14.5852 13.2559C15.4336 13.6364 16.6101 14.2618 17.9134 14.5286C18.8362 14.7166 19.2166 14.4498 19.2735 14.1262C19.4922 12.9104 19.2997 11.7252 19.2997 11.7252C19.2997 11.7252 18.7093 11.8608 18.2326 12.5955C17.3492 13.9425 16.7194 12.871 15.5736 12.3331C14.8345 11.9832 14.2397 11.6071 13.7717 11.2441C14.349 11.559 14.8301 11.6946 15.3112 11.8608C16.1246 11.0167 18.2195 9.81402 18.893 8.63758C19.1948 8.1084 18.4819 6.30218 18.4819 6.30218C18.4819 6.30218 17.7865 6.42901 17.511 7.95971C17.2355 9.48602 15.9541 9.66095 14.9176 10.4001C14.0385 11.0342 13.0545 10.4963 12.7046 10.2645C12.4116 9.93211 12.2804 9.70907 12.2804 9.70907C12.2804 9.70907 13.0939 9.78342 13.6318 9.55163C14.2047 9.30671 13.9729 8.76879 13.9992 8.45827C13.7586 8.74692 12.5559 9.00057 12.3198 8.3052C12.0486 7.51361 13.2207 7.1375 13.9685 7.85037C13.9992 7.40866 14.6814 6.96257 14.4146 6.53835C14.1479 6.11413 13.3257 6.14036 12.8227 6.02228C12.3154 5.91295 12.3504 5.34878 12.3504 5.34878C12.3504 5.34878 12.346 5.34878 12.3416 5.3444C12.3548 5.32254 12.3635 5.30067 12.3635 5.27006C12.3635 5.19133 12.2979 5.12573 12.2236 5.12573H7.88076C7.80204 5.12573 7.73643 5.19133 7.73643 5.27006C7.73643 5.28755 7.74082 5.30504 7.74519 5.32253C7.00608 5.61555 6.42442 6.49024 6.06143 7.64919C6.6912 7.36929 6.79616 7.71042 6.53813 8.03842C6.21887 8.44515 5.73342 8.95247 6.29759 10.2601C6.73056 9.2761 6.87925 9.86651 6.83989 10.54C6.70869 12.7092 8.23501 12.8885 8.23501 12.8885C7.21163 10.6187 9.47269 10.8593 9.48143 11.7777C9.48143 12.4162 8.82104 12.5474 8.82104 12.5474C9.25839 14.8784 8.41432 15.7619 8.41432 15.7619C9.62138 15.8625 9.93189 16.4572 9.93189 16.4572C9.93189 16.4572 9.12719 15.8056 7.9245 16.0724C6.85302 16.3173 6.89237 16.6497 6.02207 17.1351C5.12114 17.6424 3.17934 17.5069 2.91257 15.1452C2.8076 14.2093 3.18373 13.5752 4.16775 12.4556C5.178 11.3097 5.28296 10.8374 5.2261 10.0808C5.17362 9.3242 4.24209 7.75415 2.68953 7.39116C0.830833 6.96257 -0.100705 8.34019 0.00863012 9.30234ZM11.362 5.94356L12.1055 6.40277H11.4626L11.362 5.94356Z" fill="white"/>
<path d="M10.0806 3.75688C10.05 3.75688 10.0194 3.74813 10.0019 3.72626C9.98 3.70877 9.97125 3.67816 9.97125 3.64754C9.97125 3.61693 9.98 3.59069 10.0019 3.56882C10.0237 3.55132 10.05 3.53821 10.0806 3.53821C10.1112 3.53821 10.1374 3.55132 10.1549 3.56882C10.1768 3.58631 10.1899 3.61693 10.1899 3.64754C10.1899 3.67816 10.1768 3.70877 10.1549 3.72626C10.1374 3.74813 10.1156 3.75688 10.0806 3.75688Z" fill="white"/>
<path d="M12.6871 3.26254C12.7702 3.00888 12.7965 2.72898 12.7658 2.47532C12.744 2.28289 12.6828 2.10796 12.5822 1.95926C12.4728 1.79745 12.3198 1.67061 12.1142 1.60501C11.9699 1.56128 11.8081 1.54379 11.6156 1.57003C11.4407 1.5919 11.2745 1.67061 11.0733 1.76245C10.9815 1.80182 10.8897 1.84555 10.7847 1.88491C10.7453 1.84992 10.6972 1.82806 10.6404 1.82806H10.4479L10.273 1.51317C10.2905 1.50005 10.3124 1.48693 10.3299 1.46944V1.46507C10.3474 1.44757 10.3648 1.42133 10.3823 1.39509L10.7759 1.60939V0.839665L10.378 1.06271C10.3648 1.04085 10.3474 1.0146 10.3299 0.997108C10.3124 0.975241 10.2905 0.962121 10.2686 0.949L10.4873 0.551025H9.71759L9.93626 0.940258C9.91002 0.957752 9.88377 0.975241 9.86191 0.997108C9.84441 1.0146 9.82691 1.03647 9.81379 1.05834L9.42894 0.844043V1.61376L9.81379 1.40384C9.82691 1.42571 9.84441 1.44757 9.86191 1.46507V1.46944C9.88377 1.48693 9.90564 1.50443 9.93188 1.52192L9.76131 1.82806H9.56888C9.51203 1.82806 9.46393 1.84992 9.42457 1.88054C9.32835 1.84555 9.23213 1.80182 9.14904 1.75808C8.94786 1.67062 8.7773 1.58752 8.60674 1.56565C8.41868 1.53941 8.25249 1.55691 8.10817 1.60064C7.90699 1.66624 7.75392 1.79307 7.64459 1.95489C7.544 2.10358 7.48277 2.27852 7.45653 2.47095C7.42592 2.72461 7.45216 3.00451 7.53525 3.25817C7.63147 3.55118 7.79766 3.76111 7.95073 3.95354C8.00321 4.02788 8.06006 4.09349 8.09942 4.15909H7.89825C7.81953 4.15909 7.75392 4.22032 7.75392 4.30341C7.75392 4.38213 7.81953 4.44773 7.89825 4.44773H7.95073V4.53082H7.95509C8.09067 4.53082 8.19564 4.64016 8.19564 4.77136C8.19564 4.83259 8.17377 4.88944 8.1344 4.9288H8.80354C8.76417 4.88507 8.74231 4.83259 8.74231 4.77136C8.74231 4.64016 8.85164 4.53082 8.98285 4.53082C9.11842 4.53082 9.22339 4.64016 9.22339 4.77136C9.22339 4.83259 9.20152 4.88944 9.16654 4.9288H9.8794C9.84442 4.88507 9.81817 4.83259 9.81817 4.77136C9.81817 4.64016 9.92751 4.53082 10.0587 4.53082C10.1943 4.53082 10.2992 4.64016 10.2992 4.77136C10.2992 4.83259 10.2774 4.88944 10.2424 4.9288H10.8722C10.8328 4.88507 10.8109 4.83259 10.8109 4.77136C10.8109 4.64016 10.9203 4.53082 11.0515 4.53082C11.1827 4.53082 11.292 4.64016 11.292 4.77136C11.292 4.83259 11.2701 4.88944 11.2308 4.9288H11.9699C11.9349 4.88507 11.9087 4.83259 11.9087 4.77136C11.9087 4.64016 12.018 4.53082 12.1492 4.53082C12.1667 4.53082 12.1798 4.5352 12.1973 4.5352V4.44773H12.2279C12.3066 4.44773 12.3679 4.38213 12.3679 4.30341C12.3679 4.22032 12.3023 4.15909 12.2279 4.15909H12.1186C12.1623 4.09349 12.2148 4.02351 12.2717 3.95354C12.4291 3.76111 12.5953 3.55118 12.6871 3.26254ZM9.74819 2.68962C9.36333 2.83394 9.07906 3.20131 9.07906 3.63865C9.07906 3.82671 9.13592 4.01039 9.22776 4.16346H8.72482C8.65922 3.95353 8.52802 3.78734 8.38807 3.60803C8.26124 3.45059 8.13003 3.28003 8.06443 3.08323C8.01195 2.90829 7.98571 2.71586 8.01195 2.54092C8.02507 2.44033 8.05569 2.34412 8.1038 2.27415C8.14316 2.21292 8.2 2.16919 8.26998 2.14295C8.33995 2.12545 8.42305 2.12108 8.51927 2.12983C8.60673 2.13857 8.74231 2.1998 8.90413 2.27415C9.03533 2.33538 9.17965 2.40097 9.34147 2.4622V2.47095C9.34147 2.58903 9.44206 2.68962 9.56014 2.68962H9.74819ZM10.2424 1.23328C10.2424 1.27264 10.2293 1.31199 10.1987 1.33823C10.1724 1.36885 10.1374 1.38197 10.0937 1.38197C10.0543 1.38197 10.0193 1.36447 9.9931 1.33823C9.97124 1.31199 9.95374 1.27701 9.95374 1.23328C9.95374 1.19392 9.97124 1.15893 9.9931 1.12831C10.0193 1.10644 10.0543 1.08895 10.0937 1.08895C10.1331 1.08895 10.168 1.10644 10.1987 1.12831C10.2293 1.15893 10.2424 1.19392 10.2424 1.23328ZM10.378 3.13133L10.2118 3.4331C10.2293 3.44185 10.2424 3.45497 10.2555 3.46809C10.273 3.48121 10.2861 3.50307 10.2949 3.52057L10.5966 3.35V3.93604L10.2992 3.77422C10.2905 3.79172 10.2774 3.80921 10.2599 3.8267C10.2468 3.83982 10.2336 3.85294 10.2205 3.86169L10.3823 4.15909H9.80067L9.9625 3.87044C9.94063 3.85732 9.92314 3.8442 9.90564 3.83108C9.89252 3.81796 9.8794 3.80047 9.87065 3.78297L9.57764 3.94042V3.35437L9.87065 3.52057C9.8794 3.50307 9.89252 3.48995 9.90564 3.47246C9.92314 3.45934 9.94501 3.44185 9.9625 3.42873L9.79631 3.1357H10.378V3.13133ZM12.1492 3.0876C12.088 3.2844 11.9524 3.45497 11.8299 3.61241C11.69 3.79172 11.5588 3.95791 11.4932 4.16783H10.9553C11.0471 4.01476 11.104 3.83108 11.104 3.64302C11.104 3.20568 10.8284 2.83394 10.4392 2.69399H10.6447C10.7628 2.69399 10.8634 2.5934 10.8634 2.47532V2.47095C11.0252 2.40972 11.1783 2.34412 11.3139 2.27852C11.4713 2.20417 11.6069 2.14294 11.6944 2.1342C11.795 2.12108 11.8781 2.12545 11.9437 2.14732C12.0136 2.17356 12.0705 2.22167 12.1098 2.27852C12.1623 2.34849 12.1886 2.44471 12.2017 2.5453C12.2279 2.72023 12.2061 2.91266 12.1492 3.0876Z" fill="white"/>
<path d="M29.3017 10.2077H31.7639V22.2345H36.5966V19.3787H33.8894L35.5994 18.8145V10.2077H36.5966V7.3562H24.4953V10.2077H27.3206L25.4706 10.8462V19.3787H24.4953V22.2345H29.3017V10.2077Z" fill="white"/>
<path d="M6.7218 40.957C6.7218 41.3287 6.7218 41.5124 6.7218 41.8798C6.83988 41.906 6.90111 41.9148 7.01919 41.941C7.09791 41.3725 7.4609 41.0707 7.98571 41.1713C8.59361 41.2894 8.94349 41.8492 8.94349 42.4921C8.94349 43.2574 8.52364 43.6029 7.95509 43.4936C7.40842 43.3886 7.04981 42.8988 7.01045 42.2821C6.89674 42.2603 6.83551 42.2471 6.7218 42.2253C6.7218 42.6189 6.7218 42.8201 6.7218 43.2137C6.55999 43.1787 6.48126 43.1656 6.31944 43.1306C6.31944 42.2297 6.31944 41.7748 6.31944 40.8739C6.47689 40.9045 6.55999 40.922 6.7218 40.957ZM8.52802 42.4308C8.52802 42.0066 8.34433 41.5649 7.97259 41.4949C7.60085 41.4249 7.40842 41.7792 7.40842 42.2297C7.40842 42.6801 7.60961 43.1 7.96823 43.1699C8.33122 43.2399 8.52802 42.9032 8.52802 42.4308Z" fill="white"/>
<path d="M9.45956 41.5081C9.60389 41.5081 9.80945 41.5256 10.085 41.5737C10.3824 41.6261 10.6054 41.7267 10.7453 41.8711C10.8765 42.0023 10.964 42.1947 10.964 42.4046C10.964 42.6189 10.894 42.7851 10.7716 42.8857C10.6098 43.0169 10.3517 43.0562 10.0631 43.0038C9.98875 42.9906 9.91878 42.9731 9.86192 42.9557C9.86192 43.2968 9.86192 43.4673 9.86192 43.8041C9.70011 43.7735 9.61702 43.7604 9.4552 43.7341C9.45957 42.8463 9.45956 42.4002 9.45956 41.5081ZM9.8663 42.632C9.91441 42.6539 9.98438 42.6714 10.0675 42.6845C10.3736 42.737 10.5617 42.6189 10.5617 42.3521C10.5617 42.1028 10.3867 41.9367 10.1068 41.8885C9.99313 41.8711 9.9144 41.8667 9.87067 41.8667C9.86629 42.1772 9.8663 42.3259 9.8663 42.632Z" fill="white"/>
<path d="M11.8693 41.8885C11.8693 42.2077 11.8693 42.3652 11.8693 42.6844C11.8693 43.0431 11.8606 43.3711 11.8431 43.6728C11.8475 43.6728 11.8474 43.6772 11.8518 43.6772C11.9699 43.441 12.1142 43.1918 12.2629 42.96C12.4991 42.5926 12.6215 42.4089 12.8577 42.0372C13.0239 42.0634 13.107 42.0765 13.2732 42.0984C13.2732 42.9993 13.2732 43.4542 13.2732 44.3551C13.1201 44.3332 13.0458 44.3201 12.8927 44.2982C12.8927 43.979 12.8927 43.8172 12.8927 43.4979C12.8927 43.1436 12.8971 42.855 12.9233 42.5664C12.9189 42.5664 12.9189 42.5664 12.9189 42.5664C12.814 42.8069 12.6609 43.0649 12.5166 43.288C12.2892 43.6335 12.1755 43.8084 11.948 44.1539C11.7644 44.1233 11.6725 44.1102 11.4932 44.0796C11.4932 43.1786 11.4932 42.7238 11.4932 41.8229C11.6419 41.8491 11.7162 41.8622 11.8693 41.8885Z" fill="white"/>
<path d="M15.5867 42.4134C15.5867 43.1831 15.5867 43.5724 15.5867 44.3421C15.6742 44.3552 15.7135 44.364 15.801 44.3771C15.7923 44.727 15.7879 44.9019 15.7791 45.2518C15.6523 45.2343 15.5911 45.2299 15.4643 45.2124C15.4555 44.9894 15.4511 44.8756 15.4424 44.6482C14.8957 44.5783 14.6202 44.5433 14.0735 44.4645C14.0648 44.6876 14.0604 44.7969 14.0516 45.02C13.9248 45.0025 13.8636 44.9937 13.7368 44.9762C13.728 44.622 13.7236 44.4471 13.7149 44.0972C13.7849 44.1016 13.8242 44.1059 13.8942 44.1147C13.9817 43.9704 14.0604 43.8173 14.1129 43.6467C14.1828 43.4149 14.2091 43.1438 14.2091 42.8201C14.2091 42.584 14.2091 42.4659 14.2091 42.2297C14.7601 42.3085 15.0357 42.3434 15.5867 42.4134ZM14.5896 42.9776C14.5896 43.2837 14.5546 43.5593 14.4846 43.7867C14.4409 43.9266 14.3753 44.0622 14.3184 44.1672C14.6639 44.2153 14.8345 44.2371 15.1756 44.2809C15.1756 43.6467 15.1756 43.3318 15.1756 42.7021C14.9394 42.6714 14.8257 42.6583 14.5896 42.6233C14.5896 42.7633 14.5896 42.8376 14.5896 42.9776Z" fill="white"/>
<path d="M16.6757 42.5488C16.6757 42.8681 16.6757 43.0255 16.6757 43.3448C16.6757 43.7034 16.667 44.0314 16.6495 44.3332C16.6538 44.3332 16.6539 44.3376 16.6582 44.3376C16.7763 44.097 16.9206 43.8434 17.0693 43.6028C17.3099 43.2267 17.4279 43.0343 17.6641 42.6582C17.8303 42.6757 17.9134 42.6844 18.084 42.7019C18.084 43.6028 18.084 44.0577 18.084 44.9586C17.9309 44.9411 17.8565 44.9323 17.7035 44.9192C17.7035 44.6 17.7035 44.4382 17.7035 44.1189C17.7035 43.7646 17.7078 43.476 17.7341 43.1874C17.7297 43.1874 17.7297 43.1874 17.7297 43.1874C17.6204 43.4323 17.4717 43.699 17.3274 43.9221C17.0999 44.2763 16.9862 44.4556 16.7588 44.8099C16.5751 44.788 16.4833 44.7793 16.2996 44.7574C16.2996 43.8565 16.2996 43.4017 16.2996 42.5007C16.4483 42.5182 16.5226 42.527 16.6757 42.5488Z" fill="white"/>
<path d="M19.0986 42.8026C19.0986 43.0738 19.0986 43.2094 19.0986 43.4805C19.0986 43.7604 19.2473 43.9222 19.5228 43.9485C19.6584 43.9616 19.8027 43.931 19.9033 43.8785C19.9033 43.4761 19.9033 43.275 19.9033 42.8726C20.0695 42.8857 20.1525 42.8945 20.3144 42.9076C20.3144 43.8085 20.3144 44.2633 20.3144 45.1643C20.1525 45.1511 20.0695 45.1424 19.9033 45.1293C19.9033 44.7532 19.9033 44.5607 19.9033 44.1846C19.8989 44.1846 19.8989 44.1846 19.8945 44.1846C19.7327 44.259 19.5665 44.2808 19.3697 44.2633C19.0111 44.2284 18.6831 44.0184 18.6831 43.5067C18.6831 43.205 18.6831 43.0563 18.6831 42.7545C18.8493 42.7808 18.9324 42.7895 19.0986 42.8026Z" fill="white"/>
<path d="M22.2299 44.3202C21.8888 44.2983 21.7182 44.2852 21.3771 44.2589C21.3771 44.5257 21.3771 44.6569 21.3771 44.9237C21.7576 44.9543 21.95 44.9674 22.3305 44.9937C22.3305 45.1292 22.3305 45.1948 22.3305 45.3304C21.7839 45.2911 21.5083 45.2736 20.9617 45.2298C20.9617 44.3289 20.9617 43.8741 20.9617 42.9731C21.4865 43.0169 21.7532 43.0344 22.278 43.0694C22.278 43.2049 22.278 43.2705 22.278 43.4061C21.915 43.3799 21.7357 43.3668 21.3728 43.3405C21.3728 43.5723 21.3728 43.6904 21.3728 43.9222C21.7139 43.9484 21.8844 43.9615 22.2256 43.9834C22.2299 44.119 22.2299 44.1846 22.2299 44.3202Z" fill="white"/>
<path d="M24.4866 45.3916C24.3904 45.4353 24.1717 45.4747 23.9006 45.4615C23.1833 45.4222 22.746 44.9411 22.746 44.2545C22.746 43.511 23.262 43.0955 23.9574 43.1349C24.2286 43.148 24.4254 43.218 24.5085 43.2661C24.4735 43.3973 24.456 43.4585 24.4166 43.5897C24.3073 43.5372 24.163 43.4891 23.9749 43.4804C23.5157 43.4541 23.1833 43.7209 23.1833 44.2632C23.1833 44.7574 23.4763 45.0942 23.9749 45.1248C24.1411 45.1335 24.316 45.1117 24.4254 45.0636C24.4472 45.1904 24.4604 45.256 24.4866 45.3916Z" fill="white"/>
<path d="M25.4181 43.2443C25.4181 43.6335 25.4181 43.826 25.4181 44.2108C25.4444 44.2108 25.4575 44.2108 25.4837 44.2152C25.7593 43.8391 25.8992 43.651 26.1747 43.2749C26.3759 43.2837 26.4765 43.2837 26.6777 43.2924C26.3497 43.6904 26.1835 43.8872 25.8555 44.2808C26.1835 44.3551 26.3234 44.5738 26.424 44.8625C26.5071 45.103 26.5771 45.3348 26.6777 45.5491C26.4984 45.5447 26.4109 45.5403 26.2316 45.536C26.1529 45.3785 26.1004 45.1905 26.0435 45.0155C25.9517 44.74 25.8336 44.5345 25.51 44.5213C25.4706 44.5213 25.4531 44.517 25.4138 44.517C25.4138 44.9106 25.4138 45.1074 25.4138 45.501C25.2519 45.4922 25.1689 45.4922 25.007 45.4835C25.007 44.5826 25.007 44.1277 25.007 43.2268C25.1732 43.2312 25.2519 43.2356 25.4181 43.2443Z" fill="white"/>
<path d="M27.5042 43.3142C27.5042 43.6335 27.5042 43.7909 27.5042 44.1102C27.5042 44.4688 27.4955 44.8012 27.478 45.0986C27.4824 45.0986 27.4824 45.103 27.4868 45.103C27.6048 44.8493 27.7535 44.5825 27.9022 44.3333C28.1428 43.9353 28.2608 43.7341 28.5014 43.3317C28.6676 43.3361 28.755 43.3361 28.9212 43.3361C28.9212 44.237 28.9212 44.6919 28.9212 45.5928C28.7682 45.5928 28.6895 45.5884 28.5364 45.5884C28.5364 45.2692 28.5364 45.1073 28.5364 44.7881C28.5364 44.4338 28.5407 44.1452 28.567 43.8522C28.5626 43.8522 28.5626 43.8522 28.5626 43.8522C28.4533 44.1102 28.3046 44.3857 28.1603 44.6263C27.9328 45.0024 27.8191 45.1904 27.5873 45.5666C27.4037 45.5622 27.3118 45.5578 27.1281 45.5534C27.1281 44.6525 27.1281 44.1977 27.1281 43.2968C27.2725 43.3099 27.3512 43.3099 27.5042 43.3142Z" fill="white"/>
<path d="M29.9446 43.3493C29.9446 43.6686 29.9446 43.826 29.9446 44.1453C29.9446 44.5039 29.9358 44.8363 29.9183 45.138C29.9227 45.138 29.9227 45.138 29.9271 45.1424C30.0452 44.8887 30.1939 44.6176 30.3426 44.3639C30.5831 43.9616 30.7012 43.756 30.9417 43.3537C31.1123 43.3537 31.1954 43.3537 31.3616 43.3493C31.3616 44.2502 31.3616 44.7051 31.3616 45.606C31.2085 45.606 31.1298 45.606 30.9767 45.606C30.9767 45.2867 30.9767 45.1249 30.9767 44.8056C30.9767 44.4514 30.9811 44.1628 31.0073 43.8697C31.003 43.8697 31.003 43.8697 31.003 43.8697C30.8936 44.1278 30.7449 44.412 30.6006 44.6526C30.3732 45.0331 30.2551 45.2255 30.0277 45.606C29.844 45.606 29.7522 45.606 29.5685 45.6016C29.5685 44.7007 29.5685 44.2458 29.5685 43.3449C29.7172 43.3493 29.7915 43.3493 29.9446 43.3493ZM30.2813 42.8551C30.2901 42.9732 30.3295 43.0607 30.4563 43.0607C30.5831 43.0607 30.6268 42.9776 30.6356 42.8551C30.7537 42.8551 30.8105 42.8551 30.9286 42.8551C30.9068 43.1131 30.7449 43.2443 30.4519 43.2443C30.1676 43.2443 30.0146 43.1044 29.9883 42.8551C30.1064 42.8551 30.1676 42.8551 30.2813 42.8551Z" fill="white"/>
<path d="M33.2772 43.3185C33.2772 43.7078 33.2772 43.9002 33.2772 44.2851C33.3034 44.2851 33.3165 44.2851 33.3428 44.2851C33.6183 43.8915 33.7582 43.6946 34.0338 43.2967C34.2349 43.2923 34.3355 43.2879 34.5367 43.2792C34.2087 43.699 34.0425 43.9046 33.7145 44.32C34.0425 44.3725 34.1824 44.5824 34.283 44.8623C34.3661 45.0985 34.4361 45.3216 34.5411 45.5315C34.3618 45.5359 34.2743 45.5402 34.095 45.5446C34.0163 45.3915 33.9638 45.2078 33.9069 45.0373C33.8151 44.7661 33.6926 44.5693 33.3734 44.5781C33.334 44.5781 33.3165 44.5781 33.2772 44.5825C33.2772 44.9761 33.2772 45.1729 33.2772 45.5665C33.1153 45.5708 33.0322 45.5708 32.8704 45.5752C32.8704 44.6743 32.8704 44.2195 32.8704 43.3185C33.0322 43.3229 33.1153 43.3229 33.2772 43.3185Z" fill="white"/>
<path d="M36.9333 44.2852C36.9333 45.0418 36.4741 45.501 35.8487 45.5272C35.2102 45.5579 34.8035 45.0855 34.8035 44.4208C34.8035 43.7298 35.2408 43.2225 35.8793 43.1962C36.5441 43.1656 36.9333 43.6423 36.9333 44.2852ZM35.2408 44.3945C35.2408 44.8537 35.4726 45.208 35.8706 45.1905C36.2729 45.173 36.496 44.7925 36.496 44.3202C36.496 43.896 36.2861 43.5024 35.8706 43.5242C35.4595 43.5461 35.2408 43.931 35.2408 44.3945Z" fill="white"/>
<path d="M37.8736 43.1219C37.8736 43.4849 37.8736 43.6642 37.8736 44.0272C38.2584 44.0053 38.4465 43.9922 38.8314 43.9659C38.8314 43.6029 38.8314 43.4236 38.8314 43.0606C38.9975 43.0475 39.0806 43.0431 39.2468 43.03C39.2468 43.931 39.2468 44.3858 39.2468 45.2867C39.0806 45.2998 38.9975 45.3042 38.8314 45.3173C38.8314 44.9193 38.8314 44.7225 38.8314 44.3246C38.4465 44.3508 38.2584 44.3639 37.8736 44.3858C37.8736 44.7838 37.8736 44.9806 37.8736 45.3786C37.7074 45.3873 37.6243 45.3917 37.4625 45.4048C37.4625 44.5039 37.4625 44.049 37.4625 43.1481C37.6243 43.1394 37.7074 43.135 37.8736 43.1219Z" fill="white"/>
<path d="M41.5079 45.0332C41.4117 45.0944 41.1974 45.1644 40.9218 45.1863C40.2046 45.2475 39.7673 44.832 39.7673 44.1454C39.7673 43.4019 40.2833 42.9121 40.9743 42.8509C41.2455 42.829 41.4423 42.864 41.5254 42.9033C41.4904 43.0389 41.4729 43.1045 41.4335 43.2401C41.3242 43.2051 41.1799 43.1745 40.9918 43.192C40.5326 43.2313 40.2002 43.5462 40.2002 44.0885C40.2002 44.5827 40.4932 44.8801 40.9874 44.8364C41.1536 44.8233 41.3286 44.7708 41.4379 44.7139C41.4685 44.8408 41.4816 44.9064 41.5079 45.0332Z" fill="white"/>
<path d="M42.5094 44.364C42.4307 44.6264 42.3913 44.7576 42.317 45.0243C42.1464 45.0418 42.0633 45.0506 41.8928 45.0681C42.1814 44.1365 42.3257 43.673 42.6187 42.7414C42.8287 42.7196 42.9336 42.7108 43.1436 42.6846C43.4366 43.5549 43.5853 43.9922 43.8783 44.8625C43.7034 44.8844 43.6115 44.8931 43.4366 44.9106C43.3535 44.6657 43.3141 44.5389 43.231 44.294C42.938 44.3202 42.7937 44.3333 42.5094 44.364ZM43.1567 43.9835C43.0867 43.7692 43.0517 43.6598 42.9774 43.4455C42.9336 43.3143 42.8986 43.1613 42.8637 43.0344C42.8593 43.0344 42.8593 43.0344 42.8593 43.0344C42.8243 43.17 42.7937 43.3275 42.75 43.4674C42.68 43.6948 42.645 43.8129 42.575 44.0403C42.8068 44.0228 42.9249 44.0097 43.1567 43.9835Z" fill="white"/>
<path d="M46.0387 42.3346C46.0387 43.2355 46.0387 43.6904 46.0387 44.5913C45.8725 44.6131 45.7938 44.6219 45.6276 44.6438C45.6276 43.874 45.6276 43.4935 45.6276 42.7238C45.3827 42.7544 45.2603 42.7719 45.011 42.8026C45.011 43.0431 45.011 43.1655 45.011 43.4061C45.011 43.9484 44.9629 44.4426 44.6305 44.6875C44.5343 44.7575 44.3856 44.8274 44.2281 44.8449C44.2063 44.7137 44.1975 44.6481 44.18 44.5213C44.2806 44.4907 44.3725 44.4338 44.4293 44.3726C44.5868 44.1977 44.6086 43.839 44.6086 43.4892C44.6086 43.0999 44.6086 42.9075 44.6086 42.5183C45.1816 42.4483 45.4658 42.4133 46.0387 42.3346Z" fill="white"/>
<path d="M47.1146 42.5359C46.8565 42.5709 46.7297 42.5884 46.4717 42.6234C46.4717 42.4834 46.4717 42.4178 46.4717 42.2779C47.1539 42.1861 47.4907 42.1379 48.1729 42.0374C48.1729 42.1773 48.1729 42.2429 48.1729 42.3829C47.9149 42.4222 47.7837 42.4397 47.5257 42.4791C47.5257 43.2444 47.5257 43.6249 47.5257 44.3902C47.3595 44.4121 47.2808 44.4252 47.1146 44.4471C47.1146 43.6818 47.1146 43.3013 47.1146 42.5359Z" fill="white"/>
<path d="M48.9864 41.9104C48.9864 42.2297 48.9864 42.3871 48.9864 42.7064C48.9864 43.065 48.9777 43.3974 48.9602 43.7035C48.9646 43.7035 48.9646 43.7035 48.9689 43.7079C49.087 43.4367 49.2313 43.1393 49.38 42.8638C49.6162 42.4221 49.7343 42.1991 49.9748 41.7574C50.141 41.7311 50.2241 41.718 50.3903 41.6874C50.3903 42.5883 50.3903 43.0431 50.3903 43.9441C50.2372 43.9703 50.1629 43.9834 50.0098 44.0097C50.0098 43.6904 50.0098 43.5286 50.0098 43.2093C50.0098 42.8551 50.0142 42.5664 50.0404 42.269C50.036 42.269 50.036 42.269 50.036 42.269C49.9311 42.5446 49.778 42.8507 49.6381 43.1131C49.4107 43.533 49.2969 43.7385 49.0695 44.1584C48.8858 44.189 48.794 44.2021 48.6147 44.2283C48.6147 43.3274 48.6147 42.8726 48.6147 41.9716C48.759 41.9498 48.8334 41.9367 48.9864 41.9104Z" fill="white"/>
<path d="M51.4312 41.5037C51.4312 41.8666 51.4312 42.046 51.4312 42.409C51.8117 42.3433 51.9997 42.3084 52.3802 42.234C52.3802 41.871 52.3802 41.6917 52.3802 41.3287C52.542 41.2981 52.6251 41.285 52.7869 41.25C52.7869 42.1509 52.7869 42.6058 52.7869 43.5067C52.6251 43.5373 52.542 43.5548 52.3802 43.5854C52.3802 43.1874 52.3802 42.9906 52.3802 42.5926C51.9997 42.6626 51.8117 42.6976 51.4312 42.7676C51.4312 43.1656 51.4312 43.3624 51.4312 43.7603C51.2694 43.7909 51.1863 43.8041 51.0244 43.8303C51.0244 42.9294 51.0244 42.4746 51.0244 41.5736C51.1863 41.5474 51.2694 41.5299 51.4312 41.5037Z" fill="white"/>
<path d="M54.7025 40.8739C54.7025 41.0095 54.7025 41.0751 54.7025 41.2107C54.357 41.2806 54.182 41.32 53.8322 41.3856C53.8322 42.1509 53.8322 42.5358 53.8322 43.3055C53.6704 43.3361 53.5872 43.3536 53.4254 43.3842C53.4254 42.4833 53.4254 42.0285 53.4254 41.1276C53.9371 41.0313 54.1908 40.9789 54.7025 40.8739Z" fill="white"/>
</svg>
