<svg width="212" height="46" viewBox="0 0 212 46" fill="none" xmlns="http://www.w3.org/2000/svg">
<path d="M1.34963 39.8142L0 42.2885H46.4499L23.2812 0.337445V28.2299L6.41076 38.4646L8.77262 37.0025L1.68704 41.2763L6.41076 38.3521L23.2812 7.98537V0.224976L1.34963 39.8142Z" fill="white"/>
<path d="M50.9487 13.6088C50.9487 5.28606 57.3595 0 65.0074 0C70.5184 0 73.8925 2.81174 75.9169 5.84841L71.3057 8.32274C70.0685 6.41076 67.8191 4.83619 65.0074 4.83619C60.1712 4.83619 56.7971 8.54768 56.7971 13.4963C56.7971 18.445 60.2837 22.1565 65.0074 22.1565C67.3693 22.1565 69.5062 21.1443 70.6309 20.132V16.9829H63.6578V12.0342H76.2544V22.1565C73.5551 25.1932 69.8436 27.1051 65.0074 27.1051C57.3595 27.3301 50.9487 21.9315 50.9487 13.6088ZM82.2152 13.6088C82.2152 5.73594 88.0636 0 95.9365 0C103.922 0 109.77 5.73594 109.77 13.6088C109.77 21.5941 103.922 27.2176 95.9365 27.2176C88.0636 27.2176 82.2152 21.5941 82.2152 13.6088ZM103.922 13.6088C103.922 8.66015 100.773 4.94866 95.9365 4.94866C91.1003 4.94866 87.9512 8.66015 87.9512 13.6088C87.9512 18.5575 91.1003 22.2689 95.9365 22.2689C100.773 22.2689 103.922 18.5575 103.922 13.6088ZM114.719 23.0562L117.756 18.7824C119.668 20.6944 122.479 22.3814 126.078 22.3814C129.115 22.3814 130.69 20.9193 130.69 19.4572C130.69 14.846 115.506 17.9951 115.506 8.0978C115.506 3.71149 119.33 0.112469 125.516 0.112469C129.677 0.112469 133.164 1.34963 135.751 3.82396L132.714 7.87286C130.577 5.84841 127.765 4.94866 125.066 4.94866C122.704 4.94866 121.355 5.96088 121.355 7.64792C121.355 11.8093 136.538 8.99755 136.538 18.8949C136.538 23.7311 133.051 27.3301 125.966 27.3301C120.792 27.2176 117.081 25.5306 114.719 23.0562ZM160.944 26.7677V15.7457H148.572V26.7677H142.949V0.449878H148.572V10.7971H160.944V0.449878H166.68V26.7677H160.944ZM174.553 0.449878H180.176V26.7677H174.553V0.449878ZM206.381 26.7677L193.785 9.5599V26.7677H188.161V0.449878H193.897L206.157 16.9829V0.449878H211.78V26.7677H206.381ZM52.2984 44.6504L52.9732 43.6381C53.7605 44.5379 54.5478 44.8753 55.8974 44.8753C57.3595 44.8753 58.7091 44.2005 58.7091 42.176V40.9389C58.0343 41.8386 57.0221 42.5134 55.7849 42.5134C53.4231 42.5134 51.8485 40.8264 51.8485 37.9022C51.8485 35.0905 53.4231 33.291 55.7849 33.291C57.0221 33.291 58.0343 33.8533 58.7091 34.8655V33.5159H60.0588V42.176C60.0588 45.1002 58.0343 46 55.7849 46C54.4353 46 53.4231 45.6626 52.2984 44.6504ZM58.8216 39.8142V35.9902C58.3717 35.2029 57.247 34.5281 56.1223 34.5281C54.3228 34.5281 53.3106 35.9902 53.3106 37.9022C53.3106 39.8142 54.3228 41.2763 56.1223 41.2763C57.247 41.2763 58.2592 40.6015 58.8216 39.8142ZM62.8705 42.401V33.5159H64.2201V34.978C64.8949 34.0782 66.0196 33.4034 67.1443 33.4034V34.8655H66.582C65.6822 34.8655 64.5575 35.5403 64.2201 36.3276V42.6259H62.8705V42.401ZM68.494 37.9022C68.494 35.3154 70.181 33.291 72.8803 33.291C75.5795 33.291 77.2666 35.3154 77.2666 37.9022C77.2666 40.489 75.5795 42.6259 72.8803 42.6259C70.181 42.6259 68.494 40.489 68.494 37.9022ZM75.8045 37.9022C75.8045 36.1027 74.7923 34.5281 72.8803 34.5281C70.9683 34.5281 69.9561 36.1027 69.9561 37.9022C69.9561 39.7017 70.9683 41.3888 72.8803 41.3888C74.7923 41.3888 75.8045 39.8142 75.8045 37.9022ZM85.4768 42.401V41.1638C84.802 41.9511 83.6773 42.6259 82.3277 42.6259C80.4157 42.6259 79.516 41.7262 79.516 39.8142V33.5159H80.8656V39.3643C80.8656 40.9389 81.6529 41.3888 82.89 41.3888C84.0147 41.3888 85.027 40.7139 85.4768 40.0391V33.5159H86.8265V42.401H85.4768ZM90.9879 41.0513V45.7751H89.6382V33.5159H90.9879V34.8655C91.6627 33.9658 92.7874 33.291 94.0245 33.291C96.3864 33.291 97.961 35.0905 97.961 37.9022C97.961 40.8264 96.3864 42.6259 94.0245 42.6259C92.7874 42.6259 91.7751 42.0636 90.9879 41.0513ZM96.4989 37.9022C96.4989 35.9902 95.4866 34.5281 93.6871 34.5281C92.5624 34.5281 91.5502 35.2029 90.9879 35.9902V40.0391C91.4377 40.8264 92.5624 41.5012 93.6871 41.5012C95.4866 41.3888 96.4989 39.9267 96.4989 37.9022Z" fill="white"/>
</svg>
