<svg width="120" height="26" viewBox="0 0 120 26" fill="none" xmlns="http://www.w3.org/2000/svg">
<path d="M0.762836 22.5035L0 23.902H26.2543L13.1589 0.190523V15.9558L3.62347 21.7406L4.95844 20.9142L0.953545 23.3299L3.62347 21.6771L13.1589 4.51326V0.126953L0.762836 22.5035Z" fill="#222222"/>
<path d="M28.7971 7.69193C28.7971 2.98778 32.4206 0 36.7433 0C39.8582 0 41.7653 1.58924 42.9096 3.30562L40.3032 4.70416C39.604 3.62347 38.3326 2.7335 36.7433 2.7335C34.0098 2.7335 32.1027 4.8313 32.1027 7.62836C32.1027 10.4254 34.0734 12.5232 36.7433 12.5232C38.0783 12.5232 39.2861 11.9511 39.9218 11.379V9.59902H35.9805V6.80196H43.1003V12.5232C41.5746 14.2396 39.4768 15.3203 36.7433 15.3203C32.4206 15.4474 28.7971 12.3961 28.7971 7.69193ZM46.4695 7.69193C46.4695 3.24205 49.7751 0 54.225 0C58.7384 0 62.0441 3.24205 62.0441 7.69193C62.0441 12.2054 58.7384 15.3839 54.225 15.3839C49.7751 15.3839 46.4695 12.2054 46.4695 7.69193ZM58.7384 7.69193C58.7384 4.89487 56.9585 2.79707 54.225 2.79707C51.4915 2.79707 49.7115 4.89487 49.7115 7.69193C49.7115 10.489 51.4915 12.5868 54.225 12.5868C56.9585 12.5868 58.7384 10.489 58.7384 7.69193ZM64.8411 13.0318L66.5575 10.6161C67.6382 11.6968 69.2274 12.6504 71.2617 12.6504C72.9781 12.6504 73.868 11.824 73.868 10.9976C73.868 8.3912 65.2861 10.1711 65.2861 4.57702C65.2861 2.0978 67.4475 0.0635697 70.9438 0.0635697C73.2959 0.0635697 75.2666 0.762836 76.7287 2.16137L75.0123 4.44988C73.8045 3.30562 72.2152 2.79707 70.6895 2.79707C69.3546 2.79707 68.5917 3.36919 68.5917 4.32274C68.5917 6.67482 77.1737 5.08557 77.1737 10.6797C77.1737 13.4132 75.203 15.4474 71.1981 15.4474C68.2739 15.3839 66.1761 14.4303 64.8411 13.0318ZM90.9683 15.1296V8.89975H83.9756V15.1296H80.7971V0.254279H83.9756V6.10269H90.9683V0.254279H94.2103V15.1296H90.9683ZM98.6602 0.254279H101.839V15.1296H98.6602V0.254279ZM116.65 15.1296L109.531 5.40342V15.1296H106.352V0.254279H109.594L116.523 9.59902V0.254279H119.702V15.1296H116.65ZM29.56 25.2372L29.9414 24.665C30.3864 25.1736 30.8313 25.3643 31.5942 25.3643C32.4206 25.3643 33.1834 24.9829 33.1834 23.8386V23.1394C32.802 23.6479 32.2299 24.0293 31.5306 24.0293C30.1957 24.0293 29.3057 23.0758 29.3057 21.423C29.3057 19.8337 30.1957 18.8166 31.5306 18.8166C32.2299 18.8166 32.802 19.1345 33.1834 19.7066V18.9438H33.9463V23.8386C33.9463 25.4914 32.802 26 31.5306 26C30.7678 26 30.1957 25.8093 29.56 25.2372ZM33.247 22.5037V20.3423C32.9927 19.8973 32.357 19.5159 31.7213 19.5159C30.7042 19.5159 30.1321 20.3423 30.1321 21.423C30.1321 22.5037 30.7042 23.3301 31.7213 23.3301C32.357 23.3301 32.9291 22.9487 33.247 22.5037ZM35.5355 23.9658V18.9438H36.2983V19.7702C36.6798 19.2616 37.3155 18.8802 37.9512 18.8802V19.7066H37.6333C37.1247 19.7066 36.4891 20.088 36.2983 20.533V24.0929H35.5355V23.9658ZM38.714 21.423C38.714 19.9609 39.6675 18.8166 41.1932 18.8166C42.7189 18.8166 43.6724 19.9609 43.6724 21.423C43.6724 22.8851 42.7189 24.0929 41.1932 24.0929C39.6675 24.0929 38.714 22.8851 38.714 21.423ZM42.846 21.423C42.846 20.4059 42.2739 19.5159 41.1932 19.5159C40.1125 19.5159 39.5404 20.4059 39.5404 21.423C39.5404 22.4401 40.1125 23.3936 41.1932 23.3936C42.2739 23.3936 42.846 22.5037 42.846 21.423ZM48.313 23.9658V23.2665C47.9316 23.7115 47.2959 24.0929 46.5331 24.0929C45.4524 24.0929 44.9438 23.5844 44.9438 22.5037V18.9438H45.7067V22.2494C45.7067 23.1394 46.1516 23.3936 46.8509 23.3936C47.4866 23.3936 48.0587 23.0122 48.313 22.6308V18.9438H49.0758V23.9658H48.313ZM51.4279 23.2029V25.8729H50.6651V18.9438H51.4279V19.7066C51.8093 19.198 52.445 18.8166 53.1443 18.8166C54.4793 18.8166 55.3692 19.8337 55.3692 21.423C55.3692 23.0758 54.4793 24.0929 53.1443 24.0929C52.445 24.0929 51.8729 23.7751 51.4279 23.2029ZM54.5428 21.423C54.5428 20.3423 53.9707 19.5159 52.9536 19.5159C52.3179 19.5159 51.7458 19.8973 51.4279 20.3423V22.6308C51.6822 23.0758 52.3179 23.4572 52.9536 23.4572C53.9707 23.3936 54.5428 22.5672 54.5428 21.423Z" fill="#222222"/>
</svg>
